<?xml version="1.0" encoding="UTF-8" standalone="no"?>
<!-- Created with Inkscape (http://www.inkscape.org/) -->

<svg
   xmlns:dc="http://purl.org/dc/elements/1.1/"
   xmlns:cc="http://creativecommons.org/ns#"
   xmlns:rdf="http://www.w3.org/1999/02/22-rdf-syntax-ns#"
   xmlns:svg="http://www.w3.org/2000/svg"
   xmlns="http://www.w3.org/2000/svg"
   xmlns:sodipodi="http://sodipodi.sourceforge.net/DTD/sodipodi-0.dtd"
   xmlns:inkscape="http://www.inkscape.org/namespaces/inkscape"
   width="72"
   height="72"
   viewBox="0 0 72.000001 72.000001"
   id="svg2"
   version="1.1"
   inkscape:version="0.91 r13725"
   sodipodi:docname="icon.svg">
  <defs
     id="defs4" />
  <sodipodi:namedview
     id="base"
     pagecolor="#ffffff"
     bordercolor="#666666"
     borderopacity="1.0"
     inkscape:pageopacity="0.0"
     inkscape:pageshadow="2"
     inkscape:zoom="9.0254324"
     inkscape:cx="36"
     inkscape:cy="36"
     inkscape:document-units="px"
     inkscape:current-layer="layer1"
     showgrid="false"
     units="px"
     inkscape:window-width="1855"
     inkscape:window-height="1056"
     inkscape:window-x="65"
     inkscape:window-y="24"
     inkscape:window-maximized="1" />
  <metadata
     id="metadata7">
    <rdf:RDF>
      <cc:Work
         rdf:about="">
        <dc:format>image/svg+xml</dc:format>
        <dc:type
           rdf:resource="http://purl.org/dc/dcmitype/StillImage" />
        <dc:title></dc:title>
      </cc:Work>
    </rdf:RDF>
  </metadata>
  <g
     inkscape:label="Layer 1"
     inkscape:groupmode="layer"
     id="layer1"
     transform="translate(0,-980.36216)">
    <path
       style="fill:#f9f9f9;fill-opacity:1"
       d="M 13.666016 0 C 13.677814 0.10827409 13.726037 0.18164062 13.857422 0.18164062 C 14.344812 0.18164062 15.217129 1.1726094 15.105469 1.5996094 C 15.015379 1.9441294 14.911695 1.970425 13.953125 1.890625 C 12.994085 1.810745 12.900391 1.83389 12.900391 2.15625 C 12.900391 2.41441 12.777722 2.5097656 12.451172 2.5097656 C 11.956132 2.5097656 11.287109 3.0752606 11.287109 3.4941406 C 11.287109 3.8525406 11.977507 4.5289875 12.242188 4.4296875 C 13.065798 4.1205675 13.264617 4.1115963 13.367188 4.3789062 C 13.496487 4.7158162 13.900449 4.7468569 14.099609 4.4355469 C 14.304459 4.1153469 15.479587 3.7161163 15.554688 3.9414062 C 15.667497 4.2798163 16.418147 4.122835 16.841797 3.671875 C 17.334127 3.147835 17.569384 3.2814463 17.427734 4.0039062 C 17.343064 4.4356963 17.260207 4.4997812 16.873047 4.4257812 C 16.291827 4.3146712 15.585938 4.6299631 15.585938 5.0019531 C 15.585938 5.1594531 15.425516 5.3906419 15.228516 5.5136719 C 14.856856 5.7457719 14.733321 6.2714844 15.050781 6.2714844 C 15.161781 6.2714844 15.187288 6.5478481 15.117188 6.9863281 C 15.042947 7.4505781 15.081363 7.7957431 15.226562 7.9707031 C 15.494493 8.2935531 16.32441 8.3259906 16.625 8.0253906 C 16.74321 7.9071906 16.839844 7.6199088 16.839844 7.3867188 C 16.839844 7.0442188 16.907936 6.9843719 17.197266 7.0761719 C 17.562936 7.1922119 17.572219 7.1784244 17.636719 6.2714844 C 17.654219 6.0252344 17.682672 5.6109525 17.701172 5.3515625 C 17.722802 5.0478125 17.86306 4.8474094 18.09375 4.7871094 C 18.53157 4.6726094 18.586385 3.85697 18.171875 3.625 C 17.944265 3.49763 17.935773 3.4339731 18.126953 3.2832031 C 18.292033 3.1530531 18.540447 3.1713762 18.960938 3.3476562 L 19.560547 3.5996094 L 19.095703 4.0644531 C 18.582483 4.5776731 18.481157 5.2793331 18.898438 5.4394531 C 19.046187 5.4961531 19.167969 5.7338669 19.167969 5.9667969 C 19.167969 6.5194869 19.321907 6.6554656 19.710938 6.4472656 C 19.957138 6.3155056 20.091819 6.3769063 20.318359 6.7226562 C 20.635779 7.2070963 21.440209 7.3293219 21.818359 6.9511719 C 22.173589 6.5959419 22.072939 5.7821025 21.636719 5.4765625 C 21.342359 5.2703925 21.294602 5.1487569 21.445312 4.9980469 C 21.747823 4.6955369 21.515426 4.3007812 21.035156 4.3007812 C 20.796176 4.3007812 20.530355 4.1460694 20.421875 3.9433594 C 20.316445 3.7463594 20.112873 3.5839844 19.970703 3.5839844 C 19.762183 3.5839844 19.750836 3.5000606 19.910156 3.1503906 C 20.027476 2.8929506 20.207809 2.7558 20.355469 2.8125 C 20.492219 2.86497 20.719175 2.8136256 20.859375 2.6972656 C 21.044595 2.5435856 21.212636 2.5366213 21.472656 2.6757812 C 22.000756 2.9584113 22.212891 2.9114056 22.212891 2.5097656 C 22.212891 2.2550056 22.33089 2.1523438 22.625 2.1523438 C 23.28748 2.1523438 23.683434 1.7563394 23.615234 1.1621094 C 23.539814 0.50459937 22.895573 0.13419625 22.251953 0.37890625 C 21.904753 0.51090625 21.760718 0.47945187 21.580078 0.23242188 C 21.371238 -0.053178125 21.318351 -0.0552975 21.019531 0.1953125 C 20.357631 0.7504025 19.778207 0.89539438 19.466797 0.58398438 C 19.088897 0.20609438 18.271484 0.54120875 18.271484 1.0742188 C 18.271484 1.2733288 18.212572 1.4345937 18.138672 1.4335938 C 17.779042 1.4262538 17.608847 1.1141425 17.685547 0.6015625 C 17.765547 0.0669225 17.800216 0.045309375 18.316406 0.19335938 C 18.689096 0.30024188 18.842387 0.29894719 19.162109 0 L 16.703125 0 C 16.690915 0.027415242 16.67806 0.046444203 16.666016 0.078125 C 16.484066 0.556685 16.584895 1.078125 16.859375 1.078125 C 17.119945 1.078125 17.041292 1.5672981 16.763672 1.6738281 C 16.623132 1.7277681 16.410729 1.6555719 16.292969 1.5136719 C 16.175209 1.3717819 15.967721 1.2558594 15.832031 1.2558594 C 15.482711 1.2558594 15.525979 1.029245 15.943359 0.671875 C 16.124827 0.51649957 16.240803 0.25174684 16.28125 0 L 13.666016 0 z M 31.771484 0 C 31.724297 0.029435931 31.690474 0.063899181 31.638672 0.091796875 C 30.873502 0.50385687 30.677644 0.89780875 31.089844 1.1992188 C 31.335214 1.3786387 31.519685 1.3532494 32.078125 1.0683594 C 32.455495 0.87583937 32.844859 0.71875 32.943359 0.71875 C 33.041819 0.71875 33.628464 1.0405338 34.248047 1.4335938 C 34.86763 1.8266637 35.517077 2.1494906 35.689453 2.1503906 C 36.279724 2.1535906 36.013939 1.4874275 35.152344 0.8046875 C 34.727862 0.4683241 34.451853 0.22238306 34.232422 0 L 31.771484 0 z M 35.25 0 C 35.455639 0.19256672 35.584722 0.29686017 35.789062 0.49804688 C 36.315496 1.0163469 36.829378 1.3874188 36.931641 1.3242188 C 37.048571 1.2519487 37.066399 0.93673625 36.980469 0.47265625 C 36.95912 0.35735041 36.941094 0.16588386 36.921875 0 L 35.25 0 z M 37.638672 0 C 37.663984 0.32161155 37.687344 0.78733152 37.708984 0.85351562 C 37.816869 1.1834256 38.273769 1.1253319 38.416016 0.76367188 C 38.455476 0.66334757 38.502642 0.36107812 38.548828 0 L 37.638672 0 z M 39.212891 0 C 39.183024 0.089091358 39.153602 0.20303144 39.125 0.27148438 C 38.983851 0.60930437 38.867188 1.0092362 38.867188 1.1601562 C 38.867188 1.5597263 39.472966 1.4960575 39.869141 1.0546875 C 40.056783 0.8456475 40.633266 0.43543813 41.150391 0.14257812 C 41.23704 0.093507222 41.286425 0.04804842 41.361328 0 L 39.212891 0 z M 42.517578 0 C 42.367943 0.33526233 42.02631 0.54413877 41.267578 0.90625 C 40.161882 1.43394 39.631118 1.9709744 39.855469 2.3339844 C 40.02555 2.6091844 40.308059 2.5485462 41.525391 1.9726562 C 42.868856 1.3370862 42.981441 1.3279488 43.744141 1.7929688 C 45.06971 2.6011687 45.586165 1.9451837 44.445312 0.90234375 C 44.019272 0.51290648 43.841554 0.28848116 43.763672 0 L 42.517578 0 z M 44.296875 0 C 44.301099 0.023491408 44.293568 0.06128176 44.300781 0.080078125 C 44.452513 0.47549106 45.184992 0.41800666 45.621094 0 L 44.296875 0 z M 19.458984 1.3378906 C 19.579424 1.2800506 19.694588 1.4608363 19.742188 1.7851562 C 19.817647 2.2992962 19.788583 2.3300781 19.226562 2.3300781 C 18.762452 2.3300781 18.630859 2.2568806 18.630859 1.9941406 C 18.630859 1.8086206 18.770979 1.6057219 18.943359 1.5449219 C 19.115729 1.4841219 19.347664 1.3912906 19.458984 1.3378906 z M 32.4375 1.4023438 C 32.379719 1.4116625 32.330636 1.4352469 32.283203 1.4746094 C 32.148263 1.5865694 32.078053 1.8324912 32.126953 2.0195312 C 32.196303 2.2847213 32.148273 2.3300225 31.914062 2.2265625 C 31.085402 1.8605025 28.484235 2.0685775 28.203125 2.5234375 C 28.062605 2.7508075 29.641321 3.4248925 30.582031 3.5390625 C 31.430681 3.6420625 32.242188 3.2500912 32.242188 2.7382812 C 32.242187 2.5080013 32.289662 2.4869275 32.451172 2.6484375 C 32.612722 2.8099475 32.593431 2.9370862 32.363281 3.1914062 C 32.053461 3.5337563 31.972541 3.9725406 32.181641 4.1816406 C 32.361861 4.3618606 32.520819 4.3313644 33.355469 3.9589844 C 33.776733 3.7710444 34.442983 3.5496969 34.835938 3.4667969 C 35.881083 3.2462269 35.900841 2.7583 34.875 2.5 C 34.438863 2.39017 33.732129 2.0700894 33.304688 1.7871094 C 32.85381 1.4886469 32.610843 1.3743875 32.4375 1.4023438 z M 37.867188 1.8144531 C 37.58227 1.8255844 37.303261 1.9640419 37.013672 2.2324219 C 36.430259 2.7731119 36.39732 3.4997362 36.929688 4.0664062 C 37.445894 4.6158763 38.22304 4.6050856 38.787109 4.0410156 C 39.385316 3.4428156 39.370765 2.6492825 38.753906 2.1640625 C 38.442557 1.9191575 38.152105 1.8033219 37.867188 1.8144531 z M 15.410156 2.2304688 C 15.739007 2.2490692 16.407212 2.5206825 16.445312 2.71875 C 16.483142 2.91515 16.333234 3.0279313 15.964844 3.0820312 C 15.462214 3.1558012 15.243969 2.9254537 15.230469 2.3085938 C 15.229109 2.2464088 15.300539 2.2242686 15.410156 2.2304688 z M 43.189453 2.2734375 C 42.90287 2.2750675 42.482989 2.37626 41.912109 2.578125 C 41.46886 2.734865 40.878982 2.9067375 40.601562 2.9609375 C 39.834755 3.1106975 40.061865 3.6029375 41.0625 3.9609375 C 41.529956 4.1281875 42.174079 4.4338019 42.494141 4.6386719 C 43.137723 5.0506619 43.321154 5.0454412 43.59375 4.6132812 C 43.731788 4.3944512 43.693173 4.229165 43.443359 3.953125 C 43.12575 3.602175 43.124781 3.5685144 43.421875 3.2402344 C 43.593527 3.0505644 43.705882 2.7480594 43.669922 2.5683594 C 43.630214 2.3699744 43.476036 2.2718075 43.189453 2.2734375 z M 62.681641 2.7089844 C 62.456068 2.7302038 62.219664 2.8679737 62.041016 3.140625 C 61.76349 3.564185 61.764798 3.6161456 62.064453 3.9472656 C 62.616417 4.5571756 63.402344 4.2905106 63.402344 3.4941406 C 63.402344 2.9624594 63.057596 2.6736187 62.681641 2.7089844 z M 44.849609 2.8671875 C 43.607776 2.8671875 43.086695 3.6161919 43.921875 4.2011719 C 44.140791 4.3545119 44.644306 4.4728438 45.041016 4.4648438 C 45.992719 4.4458238 47.331126 4.0849887 47.416016 3.8242188 C 47.504224 3.5532788 45.66476 2.8671875 44.849609 2.8671875 z M 35.6875 3.9765625 C 35.363448 3.889653 34.789188 4.067685 33.910156 4.5234375 L 32.789062 5.1054688 L 32.001953 4.6757812 C 30.612973 3.9170213 30.116703 4.5812975 31.345703 5.5546875 C 32.023473 6.0914675 32.0625 6.1741469 32.0625 7.0917969 C 32.0625 7.9212669 32.110887 8.0625 32.398438 8.0625 C 32.844997 8.0625 33.063541 7.7578475 33.212891 6.9296875 C 33.315451 6.3609775 33.476421 6.163225 34.152344 5.765625 C 35.337717 5.068355 36.081314 4.3925706 35.931641 4.1503906 C 35.877374 4.0625856 35.795517 4.0055323 35.6875 3.9765625 z M 39.992188 4.1894531 C 39.812435 4.1720627 39.706641 4.2401313 39.650391 4.3867188 C 39.510165 4.7521388 40.088397 5.3803031 41.251953 6.1269531 L 42.132812 6.6933594 L 42.035156 7.5332031 C 41.973915 8.0502931 42.013171 8.4487188 42.138672 8.5742188 C 42.554203 8.9897487 42.855426 8.6915062 43.15625 7.5664062 C 43.31341 6.9786263 43.522835 6.6998388 44.068359 6.3554688 C 45.392983 5.5192788 44.800593 4.8306844 43.296875 5.4589844 C 42.680406 5.7165544 42.647092 5.7083069 41.619141 5.0292969 C 40.797145 4.4863344 40.291775 4.2184371 39.992188 4.1894531 z M 36.375 4.9980469 C 36.178971 4.9982117 35.908265 5.1657213 35.611328 5.5351562 C 35.382564 5.8197763 34.854173 6.2237138 34.435547 6.4335938 C 33.631296 6.8368238 33.418121 7.3869756 33.982422 7.6035156 C 34.244479 7.7040756 34.203884 7.7887219 33.716797 8.1699219 C 33.296781 8.4986419 33.048863 8.9309256 32.783203 9.7910156 C 32.584043 10.435666 32.466484 11.036 32.521484 11.125 C 32.770244 11.52752 34.703611 9.7670969 34.857422 8.9980469 C 34.950961 8.5303369 35.036574 8.463075 35.527344 8.484375 C 36.074716 8.508075 36.095292 8.4827512 36.197266 7.6132812 C 36.255028 7.1207812 36.395153 6.4921337 36.509766 6.2148438 C 36.821557 5.4605125 36.701714 4.9977722 36.375 4.9980469 z M 38.890625 5.0976562 C 38.855498 5.1041181 38.825549 5.1197638 38.800781 5.1445312 C 38.685717 5.2596012 38.815128 7.7847056 38.976562 8.5722656 C 39.047447 8.9180556 39.141022 8.9724594 39.505859 8.8808594 C 39.888095 8.7849294 39.963234 8.8415625 40.052734 9.2890625 C 40.109855 9.5746625 40.512433 10.260433 40.947266 10.814453 C 42.178654 12.383373 42.553831 12.10621 42.005859 10.03125 C 41.716293 8.93478 41.010673 8.1543844 40.443359 8.3027344 C 40.231704 8.3580844 40.128155 8.3114106 40.171875 8.1816406 C 40.210746 8.0662606 40.436197 7.9669844 40.673828 7.9589844 C 41.458599 7.9332944 41.554688 7.8851738 41.554688 7.5273438 C 41.554688 7.2943237 41.310201 7.0495069 40.841797 6.8105469 C 40.449826 6.6105769 40.006267 6.2076356 39.855469 5.9160156 C 39.605628 5.4328844 39.136511 5.052423 38.890625 5.0976562 z M 62.777344 5.1933594 C 61.441162 5.1343894 61.2994 5.2873163 62.001953 6.0351562 C 62.494319 6.5592363 62.722727 6.556965 63.347656 6.015625 C 63.957898 5.487015 63.786728 5.2378594 62.777344 5.1933594 z M 37.691406 5.375 C 37.427587 5.375 37.151783 6.2299756 36.982422 7.5722656 C 36.923131 8.0421856 36.778893 8.5046094 36.662109 8.5996094 C 36.545326 8.6945794 36.192202 8.9800419 35.876953 9.2324219 C 34.876481 10.033402 35.519093 10.521812 36.78125 9.9199219 C 37.373728 9.6373819 37.415519 9.6432362 38.173828 10.097656 C 39.0768 10.638786 39.084084 10.638586 39.369141 10.353516 C 39.736821 9.9858356 39.609567 9.6963581 38.867188 9.2050781 L 38.150391 8.7304688 L 38.150391 7.3359375 C 38.150391 5.7940075 38.052892 5.375 37.691406 5.375 z M 30.873047 6.0917969 C 30.089987 6.0917969 29.412696 6.9634769 29.853516 7.4042969 C 30.150216 7.7009969 30.989704 7.508175 31.271484 7.078125 C 31.649424 6.501325 31.484187 6.0917969 30.873047 6.0917969 z M 61.212891 6.4199219 C 60.785195 6.4856928 60.942813 7.0339925 61.59375 7.4726562 C 61.928442 7.6982062 62.354659 7.8828125 62.541016 7.8828125 C 63.137907 7.8828125 64.298828 7.1837088 64.298828 6.8242188 C 64.298828 6.5305388 64.150548 6.4892812 63.089844 6.4882812 C 62.424968 6.4873812 61.679844 6.4585281 61.433594 6.4238281 C 61.348368 6.4118281 61.27399 6.410526 61.212891 6.4199219 z M 44.4375 6.8359375 C 43.751615 6.824523 43.411627 7.5659231 43.984375 8.1386719 C 44.332485 8.4867619 45.022869 8.504385 45.298828 8.171875 C 45.567137 7.848585 45.220175 7.0379019 44.75 6.8886719 C 44.639518 6.8536069 44.535484 6.8375681 44.4375 6.8359375 z M 60.621094 7.5195312 C 59.814711 7.3760891 60.081038 8.1571713 61.572266 9.0742188 C 62.429784 9.6015587 62.494687 9.5976719 63.775391 8.9511719 C 64.880362 8.3933919 65.209064 8.0059456 64.869141 7.6660156 C 64.731292 7.5281756 64.383104 7.6161294 63.650391 7.9746094 L 62.625 8.4765625 L 61.779297 8 C 61.277651 7.7180125 60.889888 7.5673453 60.621094 7.5195312 z M 53.792969 7.5253906 C 53.191293 7.5253906 52.915119 8.1513219 53.275391 8.7011719 C 53.610827 9.2131119 53.852841 9.2452238 54.300781 8.8398438 C 54.898057 8.2993138 54.598955 7.5253906 53.792969 7.5253906 z M 71.285156 7.9492188 C 70.712005 7.9740221 70.190887 8.7724887 70.574219 9.234375 C 70.903277 9.630905 71.773456 9.5674188 71.910156 9.1367188 C 72.058488 8.6693687 71.877376 8.1230644 71.53125 7.9902344 C 71.449773 7.9589694 71.367035 7.9456754 71.285156 7.9492188 z M 57.314453 8.4199219 C 56.963561 8.4199219 56.777344 8.7608237 56.777344 9.4023438 C 56.777344 9.6658637 56.537357 10.011763 56.121094 10.345703 C 55.666201 10.710633 55.499315 10.962579 55.578125 11.167969 C 55.898769 12.003559 57.548872 10.873933 57.738281 9.6894531 C 57.875531 8.8311331 57.738599 8.4199219 57.314453 8.4199219 z M 56.175781 8.4609375 C 55.9604 8.4001875 55.624099 8.6040125 55.279297 9.1015625 C 54.756847 9.8554625 54.695782 10.141989 55.03125 10.261719 C 55.415988 10.399039 56.229065 9.8670738 56.345703 9.4023438 C 56.485119 8.8468638 56.391162 8.5216875 56.175781 8.4609375 z M 58.568359 8.6464844 C 58.346719 8.7278627 58.215516 9.079565 58.212891 9.640625 C 58.209076 10.466725 57.994796 10.7913 56.964844 11.53125 C 56.357947 11.96726 56.103078 12.260953 56.173828 12.445312 C 56.231243 12.594922 56.395005 12.71875 56.537109 12.71875 C 56.875854 12.71875 57.7947 12.248645 58.523438 11.703125 C 59.082903 11.284325 59.105469 11.219228 59.105469 10.017578 C 59.105469 9.0365181 59.043356 8.74255 58.818359 8.65625 C 58.725875 8.6207625 58.642239 8.6193583 58.568359 8.6464844 z M 67.644531 8.7539062 C 67.390492 8.7711738 67.169266 9.1238 67.166016 9.796875 C 67.161621 10.711115 67.458602 11.243303 68.185547 11.626953 C 68.559063 11.824073 68.966719 11.990141 69.089844 11.994141 C 69.473875 12.007721 69.338829 11.14382 68.910156 10.84375 C 68.656759 10.66638 68.441236 10.248247 68.328125 9.7167969 C 68.18696 9.0535519 67.89857 8.7366387 67.644531 8.7539062 z M 69.125 8.7773438 C 69.056057 8.7773438 68.901901 8.8960425 68.783203 9.0390625 C 68.537884 9.3346525 68.677302 9.9612969 69.09375 10.435547 C 69.419834 10.806927 70.00267 10.846953 70.132812 10.507812 C 70.225537 10.266172 69.358619 8.7773438 69.125 8.7773438 z M 66.273438 8.796875 C 66.06694 8.8393119 65.990513 9.17171 65.894531 10.085938 C 65.753441 11.429787 65.934606 11.791483 67.125 12.539062 C 68.053248 13.122012 68.508109 13.207132 68.654297 12.826172 C 68.754525 12.564972 68.367596 12.154622 67.388672 11.482422 C 66.841756 11.106852 66.806641 11.017182 66.806641 10.013672 C 66.806641 9.2163019 66.735633 8.9190438 66.529297 8.8398438 C 66.426199 8.8002812 66.34227 8.7827294 66.273438 8.796875 z M 65.041016 9.1367188 C 64.712665 9.1367188 63.659903 9.9812075 63.273438 10.554688 C 62.889712 11.124097 62.715374 12.328657 62.978516 12.591797 C 63.121382 12.734657 63.911251 12.323814 64.423828 11.839844 C 65.003827 11.292214 65.495945 9.1367188 65.041016 9.1367188 z M 60.072266 9.1464844 C 59.897396 9.1880731 59.822266 9.3944262 59.822266 9.7695312 C 59.822266 10.674321 60.223274 11.509694 60.919922 12.058594 C 61.784875 12.740114 61.970703 12.681859 61.970703 11.724609 C 61.970703 10.744889 61.621551 10.010202 60.916016 9.5078125 C 60.521119 9.2266225 60.247135 9.1048956 60.072266 9.1464844 z M 37.349609 10.316406 C 37.131287 10.315303 36.907672 10.466219 36.736328 10.771484 C 36.49872 11.194814 36.502031 11.292711 36.777344 11.712891 C 37.168319 12.309521 37.676957 12.31202 37.947266 11.71875 C 38.111395 11.35853 38.106232 11.149764 37.927734 10.777344 C 37.780644 10.470494 37.567932 10.31751 37.349609 10.316406 z M 8.2304688 11.669922 C 8.0315263 11.690708 7.8664319 11.824974 7.6074219 12.083984 C 7.0871019 12.604304 6.98532 13.954808 7.4375 14.330078 C 7.85854 14.679828 7.7518638 14.875884 7.2460938 14.683594 C 6.4612638 14.385204 6.2442406 14.459733 6.3066406 15.001953 C 6.3458206 15.342143 6.5733119 15.629264 7.0449219 15.933594 C 7.6831819 16.345464 7.7031931 16.383385 7.3457031 16.515625 C 6.8157231 16.711695 6.9560431 17.187401 7.6894531 17.681641 C 8.4553131 18.197751 8.9258394 18.197641 9.6933594 17.681641 C 10.4259 17.189171 10.605472 16.501626 10.039062 16.353516 C 9.6802923 16.259696 9.6970635 16.21638 10.308594 15.65625 C 11.325214 14.72505 11.01344 14.203361 9.6875 14.613281 L 9.2519531 14.746094 L 9.6367188 14.123047 C 10.170679 13.259087 9.9325131 12.343561 9.0644531 11.931641 C 8.6638631 11.741546 8.4294112 11.649136 8.2304688 11.669922 z M 59.148438 12.570312 C 58.902232 12.572182 58.657262 12.654806 58.191406 12.822266 C 57.66604 13.011126 57.241294 13.247203 57.246094 13.345703 C 57.250865 13.444203 57.607621 13.706114 58.039062 13.927734 C 58.999475 14.421114 59.671996 14.430237 60.693359 13.966797 C 61.648867 13.533237 61.525306 13.288554 60.113281 12.808594 C 59.641613 12.648254 59.394643 12.568443 59.148438 12.570312 z M 65.550781 12.783203 C 64.835967 12.813805 63.552633 13.252261 63.455078 13.544922 C 63.418312 13.655222 63.73368 13.914261 64.15625 14.119141 C 64.578821 14.324021 65.134448 14.495 65.390625 14.5 C 65.972019 14.51115 66.993875 14.178754 67.324219 13.871094 C 67.534174 13.675564 67.476374 13.581511 66.964844 13.269531 C 66.630694 13.065741 66.115756 12.853075 65.818359 12.796875 C 65.744545 12.782917 65.652898 12.778831 65.550781 12.783203 z M 56.285156 14.158203 C 55.886315 14.210506 56.029746 14.647659 56.912109 15.248047 C 57.991158 15.982267 57.999848 15.999224 57.894531 16.933594 C 57.846121 17.363084 57.853659 17.839857 57.912109 17.992188 C 58.050885 18.354158 58.676883 18.349928 58.816406 17.986328 C 58.876192 17.830518 58.925781 17.196998 58.925781 16.580078 C 58.925781 15.329958 58.816393 15.168477 57.544922 14.529297 C 56.958071 14.234277 56.524461 14.126822 56.285156 14.158203 z M 68.232422 14.507812 C 67.826987 14.507812 66.524042 15.118897 66.056641 15.529297 C 65.740517 15.806867 65.421445 17.850459 65.615234 18.355469 C 65.7789 18.781969 66.260652 18.674209 66.453125 18.167969 C 66.549184 17.915309 66.626953 17.388264 66.626953 16.996094 C 66.626953 16.383824 66.705153 16.238533 67.181641 15.976562 C 68.517149 15.242323 69.043293 14.507812 68.232422 14.507812 z M 62.896484 14.509766 C 62.687789 14.509766 62.660616 14.707683 62.753906 15.539062 C 62.856928 16.457143 62.954114 16.651498 63.662109 17.330078 C 64.098881 17.748708 64.542252 18.091797 64.646484 18.091797 C 64.910313 18.091797 64.875028 16.30464 64.601562 15.8125 C 64.335332 15.33339 63.25753 14.509766 62.896484 14.509766 z M 61.613281 14.580078 C 61.009335 14.614328 59.642578 15.840563 59.642578 16.470703 C 59.642578 16.647833 59.59281 17.043752 59.53125 17.351562 C 59.435943 17.828123 59.470563 17.912109 59.773438 17.912109 C 59.969075 17.912109 60.492199 17.569021 60.935547 17.150391 C 61.572554 16.548911 61.767661 16.224059 61.863281 15.599609 C 61.929828 15.165009 61.909259 14.735431 61.818359 14.644531 C 61.769415 14.595586 61.699559 14.575185 61.613281 14.580078 z M 55.777344 15.224609 C 55.157738 15.224609 55.212834 15.823422 55.875 16.294922 C 56.233361 16.550102 56.444481 16.887308 56.525391 17.335938 C 56.591279 17.701237 56.678573 18.060866 56.720703 18.134766 C 56.872314 18.400646 57.273684 18.262199 57.365234 17.912109 C 57.416634 17.715489 57.416501 17.228831 57.363281 16.832031 C 57.252112 16.003191 56.482816 15.224609 55.777344 15.224609 z M 16.050781 15.537109 C 15.377701 15.537109 14.614422 16.13651 14.544922 16.71875 C 14.465182 17.38684 14.214242 17.310219 14.076172 16.574219 C 13.936702 15.830759 13.744739 15.680943 13.261719 15.939453 C 12.980929 16.089743 12.900391 16.31214 12.900391 16.9375 C 12.900391 17.69623 12.877297 17.733115 12.529297 17.546875 C 12.015527 17.271915 11.646484 17.616261 11.646484 18.369141 C 11.646484 19.260881 11.910766 19.785484 12.572266 20.208984 C 13.499116 20.802384 14.303572 20.639197 14.070312 19.904297 C 13.925572 19.447717 14.003799 19.435824 14.724609 19.808594 C 15.151819 20.029094 15.374592 20.051144 15.701172 19.902344 C 16.236282 19.658544 16.231611 19.506555 15.675781 18.984375 C 15.095491 18.439195 15.109263 18.25329 15.720703 18.375 C 16.394143 18.50906 17.446584 17.798053 17.521484 17.158203 C 17.598234 16.502473 16.722401 15.537109 16.050781 15.537109 z M 68.875 15.611328 C 68.670513 15.631386 68.363547 15.755268 67.880859 15.992188 C 67.090774 16.379997 67.073091 16.40774 67.019531 17.34375 C 66.987821 17.89786 67.054283 18.405927 67.177734 18.554688 C 67.469386 18.906097 67.880859 18.553132 67.880859 17.951172 C 67.880859 17.649682 68.128106 17.269726 68.619141 16.816406 C 69.09548 16.376646 69.320253 16.035422 69.251953 15.857422 C 69.181844 15.674722 69.079487 15.591271 68.875 15.611328 z M 1.3710938 16.298828 C 1.2260037 16.298828 0.85970062 16.506709 0.55664062 16.761719 C -0.70296937 17.821609 0.3666456 19.606031 2.0410156 19.238281 L 2.5800781 19.121094 L 2.09375 19.699219 C 1.71214 20.152719 1.65091 20.332644 1.8125 20.527344 C 2.0813 20.851644 2.7121506 20.845172 3.1503906 20.513672 C 3.6158506 20.161672 3.765625 20.173606 3.765625 20.566406 C 3.765625 20.746206 3.8194634 20.946776 3.8847656 21.013672 C 4.4426456 21.571472 6.09375 20.138313 6.09375 19.095703 C 6.09375 18.671333 5.9614444 18.31496 5.7089844 18.0625 C 5.3562144 17.70977 5.3054519 17.701836 5.1074219 17.972656 C 4.8047919 18.386526 4.6621094 18.341141 4.6621094 17.832031 C 4.6621094 17.026851 4.3433763 16.478516 3.8789062 16.478516 C 3.5212662 16.478516 3.4264756 16.592988 3.3222656 17.148438 L 3.1953125 17.820312 L 2.9394531 17.330078 C 2.6813031 16.837388 1.8618037 16.298828 1.3710938 16.298828 z M 54.966797 16.320312 C 54.612018 16.329871 54.593425 16.734581 54.947266 17.462891 C 55.365337 18.323411 55.753948 18.483805 56.054688 17.921875 C 56.312341 17.440445 56.001068 16.704763 55.431641 16.445312 C 55.239762 16.357888 55.085056 16.317126 54.966797 16.320312 z M 69.548828 16.835938 C 68.830431 16.835938 68.072595 18.22299 68.537109 18.6875 C 68.811585 18.96197 69.122913 18.729636 69.537109 17.941406 C 69.931539 17.190806 69.935406 16.835938 69.548828 16.835938 z M 62.136719 17.462891 L 61.115234 18.027344 C 59.966455 18.662854 59.629634 19.045655 59.943359 19.359375 C 60.096331 19.512355 60.404735 19.44496 61.171875 19.09375 L 62.197266 18.625 L 63.113281 19.162109 C 63.617288 19.457349 64.143616 19.678297 64.283203 19.654297 C 65.055098 19.522727 64.39879 18.654618 62.951172 17.892578 L 62.136719 17.462891 z M 53.320312 17.591797 C 52.655685 17.634653 52.403736 18.427447 53.056641 18.884766 C 53.562351 19.238936 53.612685 19.235539 53.990234 18.818359 C 54.394036 18.372159 54.211353 17.769227 53.628906 17.623047 C 53.518569 17.595354 53.415259 17.585675 53.320312 17.591797 z M 10.625 17.964844 C 9.9939426 18.039563 8.9517606 18.918558 9.2636719 19.230469 C 9.3258719 19.292659 9.5560906 19.34375 9.7753906 19.34375 C 9.9946806 19.34375 10.223703 19.46997 10.283203 19.625 C 10.342693 19.7803 10.532398 19.880656 10.705078 19.847656 C 11.126558 19.767556 11.266494 18.140318 10.865234 17.986328 C 10.797023 17.960153 10.715151 17.95417 10.625 17.964844 z M 70.96875 18.101562 C 70.380429 18.051141 69.9144 19.042894 70.494141 19.466797 C 70.912668 19.772887 70.985861 19.766219 71.486328 19.355469 C 71.94059 18.982679 71.853111 18.586616 71.226562 18.191406 C 71.140238 18.136954 71.052796 18.108766 70.96875 18.101562 z M 6.8671875 18.136719 C 6.7507612 18.140159 6.6827831 18.187014 6.6269531 18.277344 C 6.4602231 18.547124 6.6066863 19.696806 6.8476562 20.003906 C 7.0473163 20.258306 7.4608662 20.133744 7.5976562 19.777344 C 7.6514363 19.637144 7.8545481 19.521484 8.0488281 19.521484 C 8.9641381 19.521484 8.4975012 18.617916 7.3945312 18.253906 C 7.1478462 18.172516 6.9836138 18.133279 6.8671875 18.136719 z M 32.677734 19.208984 C 32.461065 19.207414 32.329724 19.316043 32.146484 19.595703 C 31.860314 20.032483 31.860416 20.097269 32.160156 20.730469 C 32.335036 21.099969 32.605209 21.497581 32.761719 21.613281 C 32.986149 21.779381 32.814012 21.802609 31.945312 21.724609 C 30.872042 21.627909 30.837539 21.638025 30.574219 22.140625 C 30.332569 22.602325 30.333354 22.706559 30.583984 23.130859 C 30.830474 23.547259 30.96274 23.598641 31.6875 23.556641 C 32.1402 23.530641 32.651849 23.449953 32.824219 23.376953 C 33.249039 23.197753 33.221733 23.501284 32.789062 23.771484 C 32.598062 23.890784 32.304249 24.277759 32.136719 24.630859 C 31.877939 25.176159 31.869219 25.338837 32.068359 25.710938 L 32.066406 25.710938 C 32.214546 25.987737 32.458286 26.148438 32.728516 26.148438 C 33.311306 26.148438 34.210938 25.140028 34.210938 24.486328 C 34.210937 24.171628 34.283856 24.024656 34.402344 24.097656 C 34.507554 24.162656 34.545078 24.341041 34.486328 24.494141 C 34.426408 24.650241 34.592093 25.07745 34.863281 25.46875 C 35.270452 26.05655 35.432907 26.158281 35.892578 26.113281 C 36.336654 26.069481 36.46963 25.949256 36.605469 25.472656 C 36.75304 24.954856 36.707757 24.806147 36.208984 24.185547 C 35.56774 23.387547 35.503379 23.195506 35.962891 23.441406 C 36.138529 23.535106 36.629325 23.599031 37.052734 23.582031 C 37.672142 23.557631 37.869504 23.464522 38.060547 23.107422 C 38.26092 22.732822 38.25414 22.583131 38.027344 22.144531 C 37.765891 21.639331 37.729487 21.627656 36.683594 21.722656 C 35.610165 21.819956 35.609554 21.819903 35.984375 21.470703 C 36.190844 21.278403 36.359375 21.012659 36.359375 20.880859 C 36.359375 20.748959 36.479845 20.542375 36.625 20.421875 C 36.857219 20.229175 36.854941 20.139175 36.613281 19.671875 C 36.369153 19.199815 36.275381 19.154932 35.767578 19.263672 C 35.453359 19.330962 35.191847 19.395103 35.185547 19.408203 C 35.179252 19.421323 35.004628 19.655734 34.798828 19.927734 C 34.59303 20.199834 34.463419 20.573112 34.511719 20.757812 C 34.560022 20.942513 34.51333 21.148844 34.40625 21.214844 C 34.283766 21.290544 34.211475 21.148531 34.210938 20.832031 C 34.209825 20.201431 33.556874 19.394544 32.927734 19.246094 C 32.831559 19.223399 32.749958 19.209508 32.677734 19.208984 z M 62.105469 19.236328 C 61.863635 19.250487 61.605851 19.343248 61.287109 19.505859 C 60.411972 19.952289 60.236136 20.194872 60.560547 20.513672 C 60.75725 20.706972 60.957189 20.714828 61.572266 20.548828 C 62.222633 20.372828 62.412519 20.386078 62.826172 20.642578 L 62.826172 20.644531 C 63.434278 21.021331 63.484236 21.021962 63.78125 20.664062 C 63.991746 20.410363 63.940466 20.305263 63.398438 19.851562 C 62.867259 19.406962 62.508525 19.212729 62.105469 19.236328 z M 8.8183594 19.966797 C 8.3358544 20.024459 7.8847656 20.190369 7.8847656 20.417969 C 7.8847656 20.587969 7.7145794 20.945637 7.5058594 21.210938 L 7.1269531 21.693359 L 7.5058594 22.095703 C 7.7145794 22.317803 7.8847656 22.623838 7.8847656 22.773438 C 7.8847656 22.923037 7.944225 23.102828 8.015625 23.173828 C 8.086995 23.244828 8.3083125 23.261031 8.5078125 23.207031 C 8.7073125 23.153031 9.1627944 23.108422 9.5214844 23.107422 C 10.082875 23.105322 10.191075 23.035328 10.296875 22.611328 C 10.364475 22.340528 10.545296 21.9812 10.697266 21.8125 C 10.948246 21.534 10.934478 21.458728 10.548828 20.986328 C 10.315308 20.700328 10.043812 20.333175 9.9453125 20.171875 C 9.8157825 19.959725 9.3008644 19.909134 8.8183594 19.966797 z M 11.595703 20.439453 C 11.199208 20.414115 11.018797 20.646422 11.263672 21.083984 C 11.374582 21.282984 11.374092 21.508444 11.263672 21.714844 C 11.168972 21.891744 11.141572 22.116891 11.201172 22.212891 C 11.372052 22.489391 11.822553 22.419825 12.476562 22.015625 C 13.233153 21.548025 13.237064 21.225238 12.496094 20.773438 C 12.14815 20.5613 11.8336 20.454656 11.595703 20.439453 z M 62.255859 20.792969 C 62.058901 20.777069 61.841199 20.843175 61.53125 20.984375 C 61.12538 21.169275 60.927825 21.644653 61.160156 21.876953 C 61.206976 21.922953 61.645969 21.964609 62.134766 21.974609 C 63.183894 21.990409 63.496199 21.609097 62.857422 21.091797 C 62.629329 20.907097 62.452818 20.808869 62.255859 20.792969 z M 6.5175781 20.832031 C 6.2711781 20.737431 5.3543169 21.17725 5.0605469 21.53125 C 4.7899769 21.85725 4.9978275 22.140491 5.7421875 22.462891 C 6.0837575 22.610591 6.4425156 22.708687 6.5410156 22.679688 C 6.7978856 22.604687 6.7767081 20.931031 6.5175781 20.832031 z M 13.6875 22.03125 C 13.414089 22.061496 13.078126 22.205097 12.757812 22.474609 C 12.158222 22.979409 11.971343 23.626809 12.164062 24.537109 C 12.278152 25.075709 12.363447 25.158859 12.773438 25.130859 C 13.185588 25.102159 13.276 25.191216 13.4375 25.791016 C 13.72619 26.863116 14.6785 26.966081 14.6875 25.925781 C 14.69134 25.486781 14.795042 25.525581 15.507812 26.238281 L 15.507812 26.234375 C 16.266952 26.993475 16.793054 27.027975 17.433594 26.359375 C 18.482404 25.264675 17.840334 23.916016 16.271484 23.916016 C 15.894364 23.916016 15.585938 23.878984 15.585938 23.833984 C 15.585938 23.788784 15.757337 23.568703 15.966797 23.345703 C 16.182357 23.116203 16.300534 22.819309 16.240234 22.662109 C 16.091494 22.274009 15.230733 22.318787 14.689453 22.742188 C 14.111063 23.198287 13.910907 23.196888 14.154297 22.742188 C 14.422053 22.241875 14.143185 21.98084 13.6875 22.03125 z M 4.4003906 22.603516 C 4.1683294 22.635291 4.0457594 22.818737 4.0683594 23.148438 C 4.1077894 23.724137 4.0949862 23.727722 3.3789062 23.357422 C 2.2791863 22.788722 1.417725 23.593953 2.421875 24.251953 C 3.033465 24.652653 2.9852194 24.837859 2.2871094 24.755859 C 1.5860294 24.674059 0.81806437 25.203119 0.64648438 25.886719 C 0.49833438 26.477019 0.86568998 27.239997 1.4375 27.529297 C 2.03242 27.830197 2.10076 27.822712 2.8125 27.382812 C 3.20251 27.141813 3.4617438 26.818334 3.5273438 26.490234 C 3.6521237 25.866334 3.8612625 25.948841 4.0078125 26.681641 C 4.0846925 27.066041 4.2174731 27.222656 4.4707031 27.222656 C 4.9078331 27.222656 5.1992188 26.718684 5.1992188 25.958984 C 5.1992188 25.495084 5.2455325 25.425997 5.4453125 25.591797 C 5.5805725 25.704797 5.8213419 25.745594 5.9824219 25.683594 C 6.7603419 25.385094 6.3754156 23.63535 5.3847656 22.96875 C 4.9738106 22.69215 4.6324519 22.571741 4.4003906 22.603516 z M 62.101562 22.765625 C 61.950118 22.756375 61.795169 22.850069 61.582031 23.042969 C 61.205099 23.384069 61.158469 23.832278 61.46875 24.142578 C 62.164339 24.838078 63.257172 23.834169 62.597656 23.105469 C 62.400242 22.887569 62.253007 22.774875 62.101562 22.765625 z M 11.003906 23.140625 C 10.798286 23.111225 10.525007 23.210781 10.398438 23.363281 C 10.271868 23.515781 10.012473 23.640625 9.8203125 23.640625 C 9.2863025 23.640625 9.4909179 24.190675 10.205078 24.671875 C 11.117258 25.286675 11.376953 25.155538 11.376953 24.085938 C 11.376953 23.316937 11.325856 23.186625 11.003906 23.140625 z M 7.4003906 23.314453 C 7.0429847 23.391309 6.68681 24.223875 6.8984375 24.890625 C 7.0551775 25.384525 7.5674956 25.345262 8.2285156 24.789062 C 8.8968156 24.226662 8.9450069 23.820312 8.3417969 23.820312 C 8.1004469 23.820312 7.8275281 23.686438 7.7363281 23.523438 C 7.6376356 23.347088 7.5195259 23.288834 7.4003906 23.314453 z M 9.1230469 25.146484 C 8.7730806 25.194284 8.4204062 25.357128 8.0195312 25.642578 C 7.3598512 26.112278 7.3882931 26.797375 8.0644531 26.734375 C 8.4845431 26.695275 8.4707937 26.727684 7.8398438 27.271484 C 7.3668938 27.679184 7.1679688 27.994897 7.1679688 28.341797 C 7.1679787 28.887497 7.2945769 28.933253 7.9667969 28.626953 C 8.5862169 28.344653 8.6459869 28.466413 8.3105469 29.320312 C 8.0646969 29.946312 8.0604713 30.120641 8.2695312 30.556641 C 8.4032913 30.835641 8.7127344 31.165162 8.9589844 31.289062 C 9.4848844 31.553562 9.9692736 31.442441 10.527344 30.931641 C 11.093024 30.413941 11.057206 29.552113 10.441406 28.820312 L 9.9550781 28.240234 L 10.396484 28.34375 C 10.640054 28.40065 11.020568 28.503266 11.242188 28.572266 C 11.601247 28.683466 11.646484 28.635513 11.646484 28.132812 C 11.646484 27.678112 11.523831 27.498672 11.019531 27.201172 C 10.399681 26.835472 10.397159 26.828403 10.761719 26.533203 C 11.256209 26.132803 11.070381 25.73045 10.212891 25.34375 C 9.8202205 25.1667 9.4730131 25.098684 9.1230469 25.146484 z M 49.197266 25.431641 C 48.625609 25.431641 48.359375 25.762603 48.359375 26.470703 C 48.359375 26.927903 48.27137 27.101875 48.001953 27.171875 C 47.577632 27.282875 47.53701 27.628153 47.912109 27.939453 C 48.059859 28.062053 48.179688 28.338234 48.179688 28.552734 C 48.179687 28.767234 48.276331 29.040003 48.394531 29.158203 C 48.512731 29.276103 48.860666 29.373047 49.166016 29.373047 C 49.818008 29.373047 50.150391 29.095434 50.150391 28.552734 C 50.150391 28.338234 50.272172 28.062053 50.419922 27.939453 C 50.799833 27.624153 50.753153 27.282769 50.314453 27.167969 C 50.027858 27.093069 49.968307 26.980053 50.060547 26.689453 C 50.224545 26.172753 49.715709 25.431641 49.197266 25.431641 z M 53.746094 28.125 C 53.464061 28.107025 53.191224 28.158616 53.109375 28.291016 C 53.050494 28.387016 52.764773 28.417375 52.474609 28.359375 C 52.062757 28.277075 51.919882 28.328044 51.826172 28.589844 C 51.623198 29.156644 50.822561 29.708094 50.330078 29.621094 C 49.360685 29.448794 49.121146 30.315988 50.072266 30.554688 C 50.385514 30.633287 50.596922 30.592794 50.695312 30.433594 C 50.810189 30.247794 50.932212 30.303534 51.226562 30.677734 C 51.598566 31.150634 52.478516 31.366375 52.478516 30.984375 C 52.478516 30.885075 52.740421 30.824609 53.060547 30.849609 C 53.560307 30.888609 53.642484 30.837475 53.646484 30.484375 C 53.649425 30.228375 53.819996 29.990316 54.095703 29.853516 C 54.595079 29.605816 54.784097 28.792253 54.439453 28.376953 C 54.318862 28.231453 54.028126 28.142975 53.746094 28.125 z M 44.589844 28.126953 C 44.307209 28.141303 44.014856 28.227253 43.890625 28.376953 C 43.545981 28.792253 43.736952 29.605816 44.236328 29.853516 C 44.512035 29.990216 44.680694 30.228375 44.683594 30.484375 C 44.687651 30.837175 44.769773 30.888609 45.269531 30.849609 C 45.589657 30.824609 45.851562 30.885375 45.851562 30.984375 C 45.851562 31.306475 46.625464 31.173397 47.044922 30.779297 C 47.374611 30.469597 47.503857 30.438181 47.714844 30.613281 C 47.92319 30.786081 48.071792 30.768897 48.4375 30.529297 C 48.69034 30.363697 48.896484 30.116922 48.896484 29.982422 C 48.896484 29.651422 48.059346 29.460703 47.746094 29.720703 C 47.546574 29.886303 47.469603 29.8544 47.376953 29.5625 C 47.312781 29.3603 47.14355 29.193359 47 29.193359 C 46.856449 29.193359 46.65906 28.986422 46.5625 28.732422 C 46.412528 28.337722 46.312773 28.287766 45.869141 28.384766 C 45.571533 28.449666 45.299562 28.417194 45.232422 28.308594 C 45.146519 28.169494 44.872479 28.112603 44.589844 28.126953 z M 49.148438 30.638672 C 48.900485 30.653709 48.645341 30.768462 48.457031 30.976562 C 48.226211 31.232863 47.999955 31.297656 47.623047 31.222656 C 47.006834 31.099456 46.507013 31.446009 46.628906 31.912109 C 46.68861 32.140009 46.61457 32.238281 46.382812 32.238281 C 46.200847 32.238281 46.002046 32.318016 45.941406 32.416016 C 45.880766 32.514316 45.574313 32.574781 45.259766 32.550781 C 44.770986 32.513081 44.687594 32.566469 44.683594 32.917969 C 44.680653 33.173869 44.512054 33.412128 44.236328 33.548828 C 43.621564 33.853628 43.530479 34.782416 44.078125 35.166016 L 44.078125 35.164062 C 44.427994 35.408662 44.531494 35.410934 44.982422 35.177734 C 45.283879 35.020034 45.678606 34.961297 45.951172 35.029297 C 46.319664 35.121797 46.429923 35.071238 46.507812 34.773438 C 46.620017 34.344337 47.435578 33.744266 47.800781 33.822266 C 48.252937 33.918266 48.896484 33.665778 48.896484 33.392578 C 48.896484 32.997978 48.080404 32.663334 47.761719 32.927734 C 47.504725 33.141034 47.377266 33.056187 47.015625 32.429688 C 46.907848 32.242787 46.943176 32.205156 47.152344 32.285156 C 47.30905 32.345256 47.537263 32.274706 47.658203 32.128906 C 47.848551 31.899606 47.940734 31.924759 48.351562 32.318359 C 48.950966 32.895359 49.435966 32.897325 49.970703 32.328125 C 50.358907 31.914925 50.415274 31.902016 50.707031 32.166016 C 50.880793 32.323316 51.108184 32.400938 51.212891 32.335938 C 51.535713 32.136438 51.423806 32.522456 51.064453 32.847656 C 50.803193 33.083556 50.706774 33.100522 50.646484 32.919922 C 50.519118 32.538222 49.523438 32.96955 49.523438 33.40625 C 49.523438 33.79325 50.241943 34.009991 50.539062 33.712891 C 50.730886 33.521091 51.622867 34.283494 51.820312 34.808594 C 51.914321 35.058594 52.05593 35.114297 52.392578 35.029297 C 52.648597 34.965097 53.051957 35.027028 53.335938 35.173828 C 53.8921 35.461528 54.320978 35.317381 54.630859 34.738281 C 54.867026 34.297081 54.583865 33.710113 54.037109 33.507812 C 53.790075 33.416512 53.649084 33.209047 53.646484 32.935547 C 53.642932 32.562247 53.566842 32.513734 53.060547 32.552734 C 52.740421 32.577734 52.478516 32.516969 52.478516 32.417969 C 52.478516 32.319169 52.318094 32.238281 52.121094 32.238281 C 51.862692 32.238281 51.761719 32.117694 51.761719 31.808594 C 51.761719 31.326694 51.468372 31.164062 50.605469 31.164062 C 50.280834 31.164062 49.915591 31.042231 49.792969 30.894531 C 49.637589 30.707281 49.39639 30.623634 49.148438 30.638672 z M 49.166016 34.029297 C 48.514025 34.029297 48.179688 34.307009 48.179688 34.849609 C 48.179688 35.064109 48.059859 35.338337 47.912109 35.460938 C 47.521802 35.784938 47.582515 36.177734 48.023438 36.177734 C 48.346476 36.177734 48.389524 36.255553 48.302734 36.689453 C 48.239727 37.004553 48.302921 37.347184 48.46875 37.583984 C 49.033098 38.389684 50.316127 37.760775 50.074219 36.796875 C 49.979552 36.419675 50.028978 36.309422 50.322266 36.232422 C 50.752988 36.119722 50.797186 35.774037 50.419922 35.460938 C 50.272172 35.338338 50.150391 35.064109 50.150391 34.849609 C 50.150391 34.307009 49.818008 34.029297 49.166016 34.029297 z M 22.697266 34.052734 C 22.500719 34.08403 22.302704 34.186856 22.128906 34.378906 C 21.908416 34.622506 21.847787 34.874972 21.929688 35.201172 C 22.024347 35.578372 21.974921 35.688625 21.681641 35.765625 C 21.250921 35.878325 21.208678 36.224009 21.585938 36.537109 C 21.733688 36.659709 21.853516 36.933937 21.853516 37.148438 C 21.853516 37.362938 21.950159 37.635706 22.068359 37.753906 C 22.186559 37.871806 22.534494 37.96875 22.839844 37.96875 C 23.491834 37.96875 23.824219 37.691037 23.824219 37.148438 C 23.824219 36.933938 23.944047 36.659709 24.091797 36.537109 C 24.482107 36.213109 24.421389 35.820312 23.980469 35.820312 C 23.657449 35.820312 23.616325 35.742494 23.703125 35.308594 C 23.86124 34.518019 23.286906 33.958848 22.697266 34.052734 z M 27.511719 36.646484 C 27.385826 36.644672 27.248902 36.703712 27.023438 36.820312 C 26.721978 36.978012 26.325304 37.034797 26.052734 36.966797 C 25.684244 36.874297 25.573994 36.926709 25.496094 37.224609 C 25.383884 37.653609 24.568325 38.253781 24.203125 38.175781 C 23.750965 38.079781 23.107422 38.332269 23.107422 38.605469 C 23.107422 39.000069 23.923497 39.334812 24.242188 39.070312 C 24.499178 38.857012 24.628594 38.941959 24.990234 39.568359 C 25.098014 39.755359 25.060733 39.792891 24.851562 39.712891 C 24.694852 39.652691 24.468596 39.723441 24.347656 39.869141 C 24.157306 40.098541 24.063174 40.073287 23.652344 39.679688 C 23.052944 39.102588 22.567933 39.100722 22.033203 39.669922 C 21.644993 40.083122 21.588635 40.094178 21.296875 39.830078 C 21.123115 39.672878 20.895726 39.597109 20.791016 39.662109 C 20.468196 39.861609 20.580093 39.473637 20.939453 39.148438 C 21.200713 38.912537 21.297122 38.897425 21.357422 39.078125 C 21.484782 39.459725 22.480469 39.028597 22.480469 38.591797 C 22.480469 38.204897 21.763917 37.988056 21.466797 38.285156 C 21.274967 38.476956 20.382997 37.714453 20.185547 37.189453 C 20.091537 36.939353 19.947978 36.88375 19.611328 36.96875 C 19.355308 37.03305 18.951949 36.971119 18.667969 36.824219 C 18.111809 36.536619 17.682927 36.680766 17.373047 37.259766 C 17.136877 37.701066 17.420037 38.287934 17.966797 38.490234 C 18.213827 38.581634 18.354422 38.7889 18.357422 39.0625 C 18.360972 39.4357 18.437059 39.484312 18.943359 39.445312 C 19.263479 39.420313 19.525391 39.481078 19.525391 39.580078 C 19.525391 39.678878 19.687766 39.759766 19.884766 39.759766 C 20.143156 39.759766 20.242188 39.8783 20.242188 40.1875 C 20.242187 40.6693 20.535528 40.833984 21.398438 40.833984 C 21.723067 40.833984 22.090271 40.955716 22.212891 41.103516 L 22.212891 41.105469 C 22.523651 41.479969 23.170255 41.439538 23.546875 41.023438 C 23.777695 40.767038 24.003949 40.702344 24.380859 40.777344 C 24.997069 40.900644 25.49689 40.553991 25.375 40.087891 C 25.31529 39.859891 25.389344 39.761719 25.621094 39.761719 C 25.803064 39.761719 26.0019 39.681984 26.0625 39.583984 C 26.12314 39.485684 26.429591 39.425219 26.744141 39.449219 C 27.232871 39.486919 27.316312 39.433431 27.320312 39.082031 C 27.323252 38.826031 27.493811 38.587872 27.769531 38.451172 C 28.384301 38.146272 28.473431 37.217484 27.925781 36.833984 C 27.750846 36.711634 27.637611 36.648297 27.511719 36.646484 z M 62.503906 40.595703 C 61.1902 40.595703 60.645948 42.088534 61.5625 43.177734 L 62.050781 43.757812 L 61.607422 43.654297 C 61.363847 43.597297 60.983344 43.494781 60.761719 43.425781 C 60.402684 43.314481 60.359375 43.360581 60.359375 43.863281 C 60.359375 44.318081 60.480074 44.499375 60.984375 44.796875 C 61.604223 45.162675 61.606752 45.169644 61.242188 45.464844 C 60.77456 45.843444 60.920358 46.240447 61.666016 46.623047 C 62.373847 46.986247 63.224979 46.896006 63.951172 46.378906 C 64.640076 45.888406 64.633026 45.199672 63.939453 45.263672 C 63.519362 45.302672 63.533104 45.270362 64.164062 44.726562 C 64.637011 44.318962 64.835945 44.001097 64.835938 43.654297 C 64.83593 43.108597 64.709329 43.064794 64.037109 43.371094 C 63.423038 43.650794 63.34673 43.518434 63.671875 42.740234 C 64.139324 41.621534 63.580762 40.595703 62.503906 40.595703 z M 19.669922 40.833984 C 19.581663 40.860172 19.525391 40.918147 19.525391 41.013672 C 19.525391 41.112972 19.263479 41.173437 18.943359 41.148438 C 18.443589 41.109438 18.361422 41.160572 18.357422 41.513672 C 18.354482 41.769572 18.185866 42.007831 17.910156 42.144531 C 17.410776 42.392231 17.219803 43.205894 17.564453 43.621094 C 17.805633 43.912094 18.730831 43.971931 18.894531 43.707031 C 18.953411 43.611031 19.239127 43.580672 19.529297 43.638672 C 19.941147 43.721072 20.084034 43.669903 20.177734 43.408203 C 20.380704 42.841303 21.183301 42.289953 21.675781 42.376953 C 22.645181 42.549353 22.882761 41.682059 21.931641 41.443359 C 21.618391 41.364759 21.406994 41.405253 21.308594 41.564453 C 21.193724 41.750353 21.071694 41.694512 20.777344 41.320312 C 20.498336 40.965638 19.9347 40.755422 19.669922 40.833984 z M 25.712891 40.847656 C 25.467306 40.889819 25.170668 41.0217 24.960938 41.21875 C 24.631247 41.52845 24.500052 41.559866 24.289062 41.384766 C 24.080722 41.211966 23.934059 41.22915 23.568359 41.46875 C 23.315509 41.63445 23.107422 41.881125 23.107422 42.015625 C 23.107422 42.346725 23.946516 42.537244 24.259766 42.277344 C 24.459286 42.111744 24.534253 42.143547 24.626953 42.435547 C 24.691133 42.637647 24.860356 42.804688 25.003906 42.804688 C 25.147456 42.804688 25.344806 43.011725 25.441406 43.265625 C 25.591376 43.660325 25.693089 43.710281 26.136719 43.613281 C 26.434329 43.548481 26.706338 43.580853 26.773438 43.689453 L 26.773438 43.6875 C 26.945247 43.9657 27.864821 43.920394 28.113281 43.621094 C 28.457931 43.205794 28.268911 42.392231 27.769531 42.144531 C 27.493831 42.007731 27.323313 41.769672 27.320312 41.513672 C 27.316252 41.160872 27.234135 41.109438 26.734375 41.148438 C 26.414245 41.173437 26.152344 41.112672 26.152344 41.013672 C 26.152344 40.852672 25.958476 40.805494 25.712891 40.847656 z M 22.839844 42.625 C 22.187844 42.625 21.853516 42.902713 21.853516 43.445312 C 21.853516 43.659812 21.733687 43.935994 21.585938 44.058594 C 21.206028 44.373894 21.252706 44.715378 21.691406 44.830078 C 21.977996 44.904978 22.037512 45.017894 21.945312 45.308594 C 21.872193 45.538994 21.936728 45.860553 22.111328 46.126953 C 22.420148 46.598353 23.071707 46.707609 23.429688 46.349609 C 23.547897 46.231409 23.644531 45.861644 23.644531 45.527344 C 23.644531 45.070244 23.734486 44.897172 24.003906 44.826172 C 24.428186 44.715172 24.466897 44.369894 24.091797 44.058594 C 23.944047 43.935994 23.824219 43.659812 23.824219 43.445312 C 23.824219 42.902713 23.491834 42.625 22.839844 42.625 z M 70.017578 44.314453 C 69.392374 44.344292 68.592551 44.927862 68.476562 45.507812 C 68.351778 46.131713 68.144596 46.049106 67.998047 45.316406 C 67.921162 44.931906 67.78643 44.775391 67.533203 44.775391 C 67.09607 44.775391 66.806641 45.279262 66.806641 46.039062 C 66.806641 46.502862 66.760323 46.57205 66.560547 46.40625 C 66.425281 46.29325 66.18257 46.2505 66.021484 46.3125 C 65.24357 46.611 65.628482 48.362597 66.619141 49.029297 C 67.441045 49.582397 67.980707 49.509109 67.935547 48.849609 C 67.896116 48.273909 67.908913 48.270325 68.625 48.640625 C 69.724721 49.209325 70.586178 48.404094 69.582031 47.746094 C 68.966855 47.342594 69.02137 47.161141 69.732422 47.244141 C 71.507127 47.451341 72.003915 44.770737 70.271484 44.335938 C 70.191766 44.315925 70.106893 44.31019 70.017578 44.314453 z M 55.513672 45.166016 C 55.215701 45.143228 54.927425 45.295588 54.591797 45.617188 C 54.214469 45.978688 54.089844 46.267544 54.089844 46.777344 C 54.089844 47.606644 54.689145 48.082031 55.732422 48.082031 C 56.109547 48.082031 56.417969 48.119062 56.417969 48.164062 C 56.417969 48.209163 56.24657 48.429444 56.037109 48.652344 C 55.82152 48.881844 55.703342 49.178637 55.763672 49.335938 C 55.912408 49.723938 56.773179 49.679259 57.314453 49.255859 C 57.892885 48.799659 58.092997 48.801059 57.849609 49.255859 C 57.743089 49.454859 57.704052 49.695969 57.763672 49.792969 L 57.763672 49.796875 C 57.960517 50.115375 58.711567 49.978744 59.248047 49.527344 C 59.847839 49.022544 60.034511 48.375144 59.841797 47.464844 C 59.727705 46.926244 59.640453 46.842094 59.230469 46.871094 C 58.818313 46.899794 58.729867 46.808784 58.568359 46.208984 C 58.279675 45.136884 57.325506 45.035972 57.316406 46.076172 C 57.312564 46.515272 57.208871 46.476472 56.496094 45.763672 C 56.120115 45.387722 55.811642 45.188803 55.513672 45.166016 z M 39.275391 45.849609 C 38.6926 45.849609 37.792969 46.858019 37.792969 47.511719 C 37.792969 47.826419 37.72005 47.973391 37.601562 47.900391 C 37.496353 47.835391 37.458828 47.657006 37.517578 47.503906 C 37.577498 47.347806 37.411814 46.920597 37.140625 46.529297 C 36.733455 45.941497 36.571 45.839766 36.111328 45.884766 C 35.667252 45.928666 35.534276 46.048691 35.398438 46.525391 C 35.250867 47.043191 35.298103 47.1918 35.796875 47.8125 C 36.43812 48.6104 36.500528 48.802541 36.041016 48.556641 C 35.865378 48.463041 35.374581 48.399016 34.951172 48.416016 C 34.331764 48.440316 34.136356 48.533525 33.945312 48.890625 C 33.74494 49.265225 33.749767 49.415016 33.976562 49.853516 C 34.238017 50.358716 34.27442 50.370391 35.320312 50.275391 C 36.393742 50.178091 36.394352 50.178144 36.019531 50.527344 C 35.813062 50.719744 35.644531 50.985287 35.644531 51.117188 C 35.644531 51.248987 35.526015 51.455772 35.380859 51.576172 C 35.14864 51.768972 35.148965 51.858872 35.390625 52.326172 C 35.634753 52.797972 35.728524 52.843075 36.236328 52.734375 C 36.550547 52.667175 36.814012 52.600891 36.820312 52.587891 C 36.826608 52.574791 36.999278 52.342412 37.205078 52.070312 C 37.410876 51.798312 37.540487 51.424934 37.492188 51.240234 C 37.443885 51.055434 37.490576 50.849203 37.597656 50.783203 C 37.720139 50.707503 37.794385 50.849516 37.794922 51.166016 C 37.796036 51.796616 38.447034 52.603453 39.076172 52.751953 C 39.460874 52.842653 39.615055 52.775244 39.859375 52.402344 C 40.14556 51.965544 40.143489 51.900778 39.84375 51.267578 C 39.668862 50.898078 39.398691 50.500466 39.242188 50.384766 C 39.017757 50.218666 39.189895 50.195438 40.058594 50.273438 C 41.131869 50.370238 41.166367 50.359922 41.429688 49.857422 C 41.671636 49.395622 41.670555 49.291487 41.419922 48.867188 C 41.173434 48.450687 41.043123 48.399406 40.318359 48.441406 C 39.865665 48.467506 39.354016 48.548094 39.181641 48.621094 C 38.756774 48.800294 38.782173 48.496762 39.214844 48.226562 C 39.405839 48.107262 39.69966 47.720288 39.867188 47.367188 C 40.125968 46.821888 40.13664 46.659209 39.9375 46.287109 C 39.789356 46.010309 39.545621 45.849609 39.275391 45.849609 z M 64.65625 46.757812 C 64.426377 46.7619 64.127022 46.913134 63.775391 47.208984 C 63.100346 47.776984 63.059938 48.177734 63.677734 48.177734 C 63.927078 48.177734 64.177778 48.302578 64.236328 48.455078 C 64.537652 49.240378 65.343911 48.079194 65.119141 47.183594 C 65.046749 46.895394 64.886123 46.753725 64.65625 46.757812 z M 61.058594 46.974609 C 60.754012 46.939413 60.613887 47.175641 60.570312 47.705078 C 60.539122 48.084078 60.556655 48.507131 60.609375 48.644531 C 60.736118 48.974731 61.330868 48.963 61.611328 48.625 C 61.733949 48.4773 61.993386 48.355469 62.185547 48.355469 C 62.719552 48.355469 62.512992 47.807472 61.798828 47.326172 C 61.483525 47.113697 61.241343 46.995727 61.058594 46.974609 z M 9.9726562 47.621094 C 9.4027523 47.6444 8.91161 48.345978 9.40625 48.892578 C 9.80108 49.328278 9.9975479 49.340778 10.423828 48.955078 C 10.800758 48.613978 10.845436 48.165669 10.535156 47.855469 C 10.361259 47.681569 10.162624 47.613325 9.9726562 47.621094 z M 63.714844 48.818359 C 63.543819 48.826359 63.049759 48.847281 62.617188 48.863281 C 61.918938 48.889781 61.816153 48.949419 61.707031 49.386719 C 61.639428 49.657619 61.457058 50.019959 61.300781 50.193359 C 61.040008 50.482659 61.045637 50.542056 61.380859 50.910156 C 61.581414 51.130385 61.844675 51.502102 61.964844 51.734375 C 62.144452 52.081207 62.278647 52.136724 62.726562 52.046875 C 63.025294 51.987275 63.459421 51.9375 63.693359 51.9375 C 63.989054 51.9375 64.119141 51.835716 64.119141 51.603516 C 64.119141 51.419816 64.291284 51.052409 64.5 50.787109 L 64.878906 50.304688 L 64.517578 49.912109 C 64.318696 49.696309 64.125654 49.359109 64.089844 49.162109 C 64.052805 48.958309 63.891754 48.808359 63.714844 48.818359 z M 65.513672 49.316406 C 65.455983 49.312822 65.411892 49.317222 65.384766 49.333984 C 65.276196 49.401084 65.254072 50.878434 65.357422 51.177734 C 65.39438 51.284734 65.785676 51.205931 66.146484 51.019531 C 66.791029 50.686531 67.145718 50.307088 67.048828 50.054688 C 66.957034 49.815462 65.917497 49.341496 65.513672 49.316406 z M 60.457031 49.654297 C 60.239148 49.637059 59.919853 49.74065 59.550781 49.96875 C 58.77268 50.44955 58.761817 50.768816 59.507812 51.228516 L 59.507812 51.226562 C 60.235855 51.675462 60.826833 51.631412 60.751953 51.132812 C 60.722383 50.935813 60.699219 50.693703 60.699219 50.595703 C 60.699219 50.497203 60.722383 50.257653 60.751953 50.064453 C 60.79087 49.810303 60.674914 49.671534 60.457031 49.654297 z M 9.9140625 50.03125 C 8.8230425 49.99255 8.4897875 50.37285 9.1484375 50.90625 C 9.6059475 51.27675 9.8540617 51.296066 10.482422 51.009766 C 10.799602 50.865266 10.928778 50.682641 10.892578 50.431641 C 10.847708 50.120341 10.699073 50.05925 9.9140625 50.03125 z M 67.775391 50.912109 C 67.10591 50.873934 65.910156 51.924419 65.910156 52.902344 C 65.910156 53.326744 66.042463 53.683047 66.294922 53.935547 C 66.647694 54.287747 66.700412 54.296191 66.898438 54.025391 C 67.201073 53.611491 67.34375 53.656816 67.34375 54.166016 C 67.34375 54.971116 67.660527 55.519531 68.125 55.519531 C 68.482639 55.519531 68.57939 55.405009 68.683594 54.849609 L 68.808594 54.177734 L 69.064453 54.666016 C 69.205213 54.934716 69.539782 55.274122 69.808594 55.419922 C 70.504925 55.797822 70.823724 55.762628 71.449219 55.236328 C 72.708834 54.176428 71.639216 52.392066 69.964844 52.759766 L 69.423828 52.878906 L 69.910156 52.298828 C 70.29177 51.845328 70.352998 51.665403 70.191406 51.470703 C 69.922603 51.146503 69.293715 51.154828 68.855469 51.486328 C 68.379149 51.846628 68.273481 51.825322 68.207031 51.357422 C 68.164776 51.059897 67.998551 50.924834 67.775391 50.912109 z M 8.6425781 51.121094 C 8.5213219 51.105244 8.4275088 51.142766 8.3242188 51.228516 C 7.9292988 51.556216 7.9981306 51.709222 8.8066406 52.294922 C 9.6843606 52.930822 9.8311635 52.945316 10.746094 52.478516 C 11.593734 52.046116 11.765359 51.800775 11.443359 51.484375 C 11.246909 51.291175 11.047227 51.284119 10.435547 51.449219 C 9.7810167 51.625919 9.5953063 51.609484 9.1289062 51.333984 C 8.9131912 51.206534 8.7638344 51.136944 8.6425781 51.121094 z M 58.419922 51.470703 C 58.064549 51.474047 57.829468 51.643619 57.927734 52.035156 C 58.057896 52.553756 58.009069 52.565853 57.28125 52.189453 C 56.854043 51.968953 56.63127 51.946903 56.304688 52.095703 C 55.76959 52.339503 55.772289 52.491572 56.328125 53.013672 C 56.908446 53.559072 56.896589 53.744747 56.285156 53.623047 C 55.624799 53.491647 54.557445 54.201012 54.484375 54.820312 C 54.423417 55.337012 55.021969 56.195303 55.591797 56.408203 C 56.326633 56.682803 57.494141 55.957009 57.494141 55.224609 C 57.494141 54.584309 57.796232 54.722828 57.927734 55.423828 C 58.067208 56.167328 58.259164 56.317094 58.742188 56.058594 C 59.023001 55.908294 59.105469 55.685947 59.105469 55.060547 C 59.105469 54.301847 59.126617 54.264972 59.474609 54.451172 C 60.217179 54.848572 60.637333 53.767309 60.193359 52.599609 C 59.936454 51.923859 59.01221 51.46513 58.419922 51.470703 z M 64.970703 51.869141 C 64.841963 51.844486 64.693834 51.920478 64.537109 52.103516 C 64.361993 52.308016 64.081404 52.474609 63.912109 52.474609 C 63.11829 52.474609 63.425929 53.240556 64.388672 53.660156 C 65.378084 54.091356 65.556117 53.940122 65.416016 52.794922 C 65.346919 52.230109 65.185269 51.910232 64.970703 51.869141 z M 61.277344 52.119141 C 61.059941 52.174104 60.896484 52.520969 60.896484 53.066406 C 60.896484 53.496306 60.949955 53.90275 61.015625 53.96875 C 61.1947 54.14775 61.398013 54.114506 61.974609 53.816406 C 62.518903 53.534906 62.936007 52.963378 62.740234 52.767578 C 62.678032 52.705478 62.467787 52.654297 62.273438 52.654297 C 62.079087 52.654297 61.822865 52.521222 61.703125 52.357422 C 61.557522 52.158297 61.407785 52.086162 61.277344 52.119141 z M 7.6777344 52.34375 C 7.6134816 52.346667 7.5661925 52.365591 7.53125 52.400391 C 7.20276 52.727691 7.5173794 53.159006 8.5683594 53.816406 C 9.1216294 54.162506 9.689285 54.445312 9.828125 54.445312 C 10.210225 54.445312 12.017209 53.366413 12.130859 53.070312 C 12.352349 52.493113 11.868191 52.428691 10.837891 52.900391 L 9.8222656 53.367188 L 8.7734375 52.787109 C 8.208875 52.474434 7.8704928 52.334998 7.6777344 52.34375 z M 1.0351562 52.400391 C 0.89912312 52.415853 0.75660063 52.466566 0.61914062 52.556641 C 0.10720063 52.892041 0.07508875 53.132078 0.48046875 53.580078 C 1.0209988 54.177278 1.7949219 53.878266 1.7949219 53.072266 C 1.7949219 52.621291 1.4432556 52.354003 1.0351562 52.400391 z M 18.457031 52.878906 C 18.349889 52.882094 18.253446 52.957622 18.087891 53.107422 C 17.660951 53.493822 17.640665 53.789162 18.015625 54.164062 C 18.350795 54.498663 18.835372 54.527869 19.132812 54.230469 C 19.480493 53.882769 19.379901 53.400031 18.894531 53.082031 C 18.682746 52.943481 18.564174 52.875719 18.457031 52.878906 z M 3.2460938 53.248047 C 3.1796989 53.241291 3.1056269 53.253122 3.0214844 53.287109 C 2.7746044 53.386809 2.1542969 54.576972 2.1542969 54.951172 C 2.1542969 55.292172 2.725095 55.193137 3.171875 54.773438 C 3.731525 54.24765 3.7108577 53.295338 3.2460938 53.248047 z M 4.6484375 53.294922 C 4.5666261 53.275603 4.4722581 53.305025 4.3691406 53.390625 C 4.2344606 53.502325 4.125 53.797575 4.125 54.046875 C 4.125 54.348375 3.8758056 54.730294 3.3847656 55.183594 C 2.9084356 55.623394 2.6856063 55.962625 2.7539062 56.140625 C 2.8941162 56.506025 3.15963 56.479759 4.125 56.005859 C 4.91505 55.618059 4.930775 55.59225 4.984375 54.65625 C 5.03005 53.8581 4.8938717 53.352878 4.6484375 53.294922 z M 6.03125 53.400391 C 5.6721916 53.363776 5.4943875 53.761406 5.4140625 54.730469 C 5.3395125 55.629369 5.2697481 55.776756 4.7988281 56.035156 C 3.9311981 56.511256 3.4082031 56.962075 3.4082031 57.234375 C 3.4082031 57.374975 3.5712144 57.490234 3.7714844 57.490234 C 4.2044344 57.490234 5.7602406 56.730247 6.0566406 56.373047 C 6.1712806 56.234947 6.3192656 55.544344 6.3847656 54.839844 C 6.4880056 53.729144 6.4626056 53.543206 6.1972656 53.441406 C 6.1383681 53.418806 6.0825441 53.405621 6.03125 53.400391 z M 14.927734 53.744141 C 14.809371 53.739738 14.701885 53.843862 14.640625 54.078125 C 14.438925 54.849425 14.723535 55.875931 15.265625 56.332031 C 15.913805 56.877031 16.660156 56.927834 16.660156 56.427734 C 16.660156 56.237434 16.423112 55.913731 16.132812 55.707031 C 15.761992 55.443031 15.559868 55.106072 15.455078 54.576172 C 15.353222 54.061109 15.125006 53.751479 14.927734 53.744141 z M 13.558594 53.748047 C 13.199756 53.772703 13.084656 54.200962 13.082031 55.359375 C 13.078991 56.666675 13.172435 56.812837 14.421875 57.460938 C 15.978585 58.268338 16.50903 57.710406 15.09375 56.753906 C 14.62587 56.437706 14.207363 56.150234 14.164062 56.115234 C 14.120862 56.079734 14.080219 55.5491 14.074219 54.9375 C 14.065039 53.9967 14.011453 53.815766 13.726562 53.759766 C 13.664962 53.747753 13.609856 53.744525 13.558594 53.748047 z M 16.3125 53.75 C 16.181693 53.763932 16.060601 53.871684 15.951172 54.076172 C 15.723222 54.502072 15.965991 55.2325 16.425781 55.5 C 17.277481 55.9955 17.560584 55.508191 17.027344 54.462891 C 16.773463 53.965266 16.530512 53.72678 16.3125 53.75 z M 7.3574219 53.908203 C 7.0935919 53.908203 7.1288837 55.6954 7.4023438 56.1875 C 7.5241238 56.4067 7.8992081 56.790362 8.2363281 57.039062 C 9.2161081 57.761863 9.3870431 57.664738 9.2519531 56.460938 C 9.1489331 55.542938 9.0497869 55.348522 8.3417969 54.669922 C 7.9050169 54.251322 7.4616519 53.908203 7.3574219 53.908203 z M 63.314453 53.931641 C 63.004792 53.931628 62.69431 54.060359 62.310547 54.318359 C 61.578011 54.810859 61.398437 55.498384 61.964844 55.646484 C 62.323612 55.740284 62.30879 55.78355 61.697266 56.34375 C 60.68064 57.27495 60.990463 57.796619 62.316406 57.386719 L 62.751953 57.251953 L 62.367188 57.876953 C 61.842632 58.725653 62.073825 59.6483 62.914062 60.0625 C 63.69635 60.4482 63.883516 60.428916 64.396484 59.916016 C 64.916803 59.395716 65.01858 58.045222 64.566406 57.669922 C 64.145365 57.316122 64.252038 57.124206 64.757812 57.316406 C 65.542638 57.614806 65.761659 57.540247 65.699219 56.998047 C 65.660046 56.657847 65.430593 56.370706 64.958984 56.066406 C 64.320716 55.654506 64.302666 55.616575 64.660156 55.484375 C 65.190132 55.288275 65.049825 54.812659 64.316406 54.318359 C 63.933478 54.060309 63.624115 53.931653 63.314453 53.931641 z M 12.21875 54.087891 C 12.02939 54.087891 11.511709 54.431009 11.068359 54.849609 C 10.437779 55.445009 10.236931 55.778812 10.144531 56.382812 C 10.079631 56.807413 10.073659 57.230266 10.130859 57.322266 C 10.285819 57.572966 10.458778 57.532091 11.111328 57.087891 C 11.941508 56.522891 12.312466 55.925953 12.447266 54.939453 C 12.551136 54.179753 12.5264 54.087891 12.21875 54.087891 z M 6.5527344 57.539062 C 6.4421643 57.530146 6.3408131 57.529641 6.2558594 57.541016 C 5.4807994 57.645016 4.6124687 58.042975 4.6054688 58.296875 C 4.6025788 58.395375 4.9573781 58.661372 5.3925781 58.888672 C 5.9075581 59.157972 6.3742088 59.27275 6.7304688 59.21875 C 7.4740988 59.10595 8.6015625 58.623016 8.6015625 58.416016 C 8.6015625 58.114841 7.3267248 57.601477 6.5527344 57.539062 z M 12.619141 57.695312 C 12.209506 57.699075 11.794171 57.813309 11.300781 58.037109 C 10.393601 58.448709 10.456893 58.625678 11.695312 59.142578 C 12.527703 59.489978 13.198593 59.460203 14.220703 59.033203 C 15.013693 58.701903 14.94634 58.485972 13.90625 58.013672 C 13.43267 57.798822 13.028776 57.69155 12.619141 57.695312 z M 3.7753906 58.947266 C 3.5509544 58.913041 3.4197694 58.990978 3.3496094 59.173828 C 3.2493794 59.435028 3.6382675 59.845378 4.6171875 60.517578 C 5.1603375 60.890578 5.1992188 60.987672 5.1992188 61.951172 C 5.1992187 62.519072 5.2526594 63.035562 5.3183594 63.101562 C 5.5674194 63.350662 5.9109344 63.205759 5.9902344 62.818359 C 6.3996544 60.817059 6.1865119 60.222472 4.7636719 59.388672 C 4.3173469 59.127122 3.9998269 58.981491 3.7753906 58.947266 z M 15.542969 59.324219 C 15.221646 59.265934 14.666381 59.504316 13.863281 60.041016 L 12.988281 60.625 L 12.935547 61.769531 C 12.905947 62.399431 12.923409 63.024703 12.974609 63.158203 C 13.101999 63.489803 13.552467 63.463988 13.685547 63.117188 C 13.745357 62.961388 13.794922 62.553284 13.794922 62.208984 C 13.794922 61.564984 14.090863 61.183934 15.376953 60.177734 C 15.788293 59.855634 15.904319 59.660922 15.787109 59.482422 C 15.731342 59.397522 15.650076 59.343647 15.542969 59.324219 z M 8.8457031 59.378906 C 8.4194961 59.467672 7.3661581 60.260731 7.1699219 60.691406 C 7.0562019 60.941006 6.9173281 61.531406 6.8613281 62.003906 C 6.8001181 62.520606 6.83069 62.863281 6.9375 62.863281 C 7.28746 62.863281 8.3308487 62.038313 8.7304688 61.445312 C 9.1367588 60.842412 9.2943481 59.578972 8.9863281 59.388672 C 8.9553519 59.369522 8.9065898 59.366225 8.8457031 59.378906 z M 10.224609 59.5 C 10.075127 59.549762 10.033203 59.799991 10.033203 60.275391 C 10.033203 61.239091 10.373324 61.969269 11.058594 62.480469 C 11.834144 63.058969 12.183594 62.981469 12.183594 62.230469 C 12.183594 61.314669 11.773606 60.471141 11.066406 59.931641 C 10.632466 59.600691 10.374092 59.450238 10.224609 59.5 z M 34.599609 59.837891 C 34.390791 59.833766 34.198099 59.974622 34.066406 60.263672 C 33.863587 60.708772 33.928829 61.135566 34.267578 61.572266 C 34.531691 61.912866 34.968717 61.762463 35.269531 61.226562 C 35.506247 60.804762 35.50159 60.706809 35.226562 60.287109 C 35.033 59.991559 34.808428 59.842016 34.599609 59.837891 z M 2.8769531 59.998047 C 2.5064831 59.998047 2.6890875 60.883562 3.1171875 61.164062 C 3.4028675 61.351263 3.5810563 61.686741 3.6601562 62.181641 C 3.7250462 62.587441 3.8215469 62.987312 3.8730469 63.070312 C 4.0318769 63.327312 4.6176919 63.2365 4.7324219 62.9375 C 4.8937919 62.5169 4.8629288 61.694341 4.6679688 61.181641 C 4.5124588 60.772541 3.3406331 59.998047 2.8769531 59.998047 z M 30 60.177734 C 29.663 60.177734 29.662577 60.69845 29.998047 61.96875 C 30.287617 63.06515 30.993237 63.845666 31.560547 63.697266 C 31.772207 63.641966 31.875731 63.688659 31.832031 63.818359 C 31.793151 63.933759 31.567708 64.032969 31.330078 64.042969 C 30.545298 64.068569 30.451172 64.114856 30.451172 64.472656 C 30.451172 64.705656 30.695663 64.950553 31.164062 65.189453 C 31.556033 65.389453 31.998658 65.790478 32.148438 66.080078 C 32.298207 66.369778 32.560189 66.68625 32.730469 66.78125 C 33.249379 67.07165 33.32681 66.838753 33.21875 65.314453 C 33.06233 63.107953 33.022187 62.987641 32.498047 63.119141 C 32.115807 63.215141 32.040672 63.158437 31.951172 62.710938 C 31.823232 62.071238 30.36462 60.177734 30 60.177734 z M 15.980469 60.542969 C 15.371929 60.563645 14.407682 61.422172 14.265625 62.310547 C 14.203725 62.697647 14.202019 63.141275 14.261719 63.296875 C 14.321419 63.452375 14.513533 63.580078 14.689453 63.580078 C 15.040343 63.580078 15.228516 63.239156 15.228516 62.597656 C 15.228516 62.334056 15.468506 61.988297 15.884766 61.654297 C 16.339656 61.289397 16.506534 61.037431 16.427734 60.832031 C 16.347574 60.623131 16.183315 60.536077 15.980469 60.542969 z M 39.306641 60.851562 C 38.871169 60.982755 37.603216 62.030362 37.316406 62.546875 C 37.19199 62.770975 37.087484 63.085747 37.083984 63.248047 C 37.079299 63.465747 36.923731 63.537578 36.494141 63.517578 C 35.924463 63.491678 35.911385 63.510319 35.808594 64.386719 C 35.750832 64.879219 35.608753 65.507856 35.494141 65.785156 C 35.379524 66.062456 35.285156 66.446119 35.285156 66.636719 C 35.285156 67.162119 35.910385 67.064844 36.392578 66.464844 C 36.621342 66.180244 37.149734 65.776306 37.568359 65.566406 C 38.372609 65.163206 38.587738 64.612984 38.023438 64.396484 C 37.761381 64.295884 37.800023 64.211278 38.287109 63.830078 C 38.708758 63.500078 38.956662 63.069113 39.226562 62.195312 C 39.432191 61.529413 39.52432 60.942469 39.4375 60.855469 C 39.414611 60.832581 39.368851 60.832821 39.306641 60.851562 z M 2.2988281 61.251953 C 1.7559381 61.251953 1.7458181 61.679662 2.2675781 62.476562 C 2.8033181 63.294862 2.9019631 63.344938 3.2207031 62.960938 C 3.6232031 62.475937 2.9627381 61.251953 2.2988281 61.251953 z M 32.853516 61.523438 C 32.793287 61.537636 32.739362 61.568606 32.685547 61.613281 C 32.254027 61.971381 32.376599 62.291922 33.136719 62.794922 L 33.853516 63.269531 L 33.853516 64.664062 C 33.853516 65.430862 33.901148 66.185897 33.960938 66.341797 C 34.020726 66.497597 34.179242 66.625 34.3125 66.625 C 34.576319 66.625 34.852123 65.770034 35.021484 64.427734 C 35.080776 63.957734 35.225014 63.495391 35.341797 63.400391 C 35.458581 63.305391 35.811705 63.021931 36.126953 62.769531 C 37.126161 61.969631 36.486354 61.479278 35.226562 62.080078 C 34.635919 62.361678 34.593793 62.354659 33.785156 61.880859 C 33.277695 61.583409 33.034202 61.480842 32.853516 61.523438 z M 16.712891 61.708984 C 16.088259 61.767659 15.410238 62.684659 15.650391 63.310547 C 15.825391 63.766547 16.232862 63.610837 16.726562 62.898438 C 17.249012 62.144538 17.310069 61.858081 16.974609 61.738281 C 16.890351 61.708219 16.802124 61.700602 16.712891 61.708984 z M 9.5117188 62.431641 L 8.421875 62.953125 C 7.189465 63.542125 6.9020038 63.808697 7.0585938 64.216797 C 7.1851238 64.546497 7.60878 64.457106 8.65625 63.878906 L 9.3398438 63.501953 L 10.205078 63.988281 C 10.681438 64.256081 11.242109 64.474609 11.449219 64.474609 C 12.300869 64.474609 11.596539 63.545903 10.167969 62.783203 L 9.5117188 62.431641 z M 0.70507812 62.505859 C 0.26751562 62.505859 0.0049755859 62.817886 0 63.181641 C -0.0029853516 63.399894 0.087369375 63.636175 0.28710938 63.835938 C 0.65575937 64.204338 0.82596248 64.191666 1.2578125 63.759766 C 1.8770625 63.140566 1.5979481 62.505859 0.70507812 62.505859 z M 18.257812 62.886719 C 18.099666 62.865219 17.929048 62.957456 17.705078 63.160156 C 17.328148 63.501256 17.281517 63.951419 17.591797 64.261719 C 17.929627 64.599519 18.597826 64.513869 18.816406 64.105469 C 18.970496 63.817469 18.950596 63.637728 18.728516 63.298828 C 18.560801 63.042828 18.415959 62.908219 18.257812 62.886719 z M 29.539062 63.28125 C 29.273261 63.292519 29.036946 63.669875 28.855469 64.390625 C 28.695399 65.026325 28.508926 65.282425 27.941406 65.640625 C 26.609576 66.481325 27.201261 67.170662 28.712891 66.539062 C 29.332621 66.280162 29.367395 66.28845 30.265625 66.90625 C 30.771045 67.25395 31.361355 67.610266 31.578125 67.697266 C 32.142195 67.924766 32.239845 67.911109 32.359375 67.599609 C 32.494325 67.247909 31.898436 66.607547 30.753906 65.873047 L 29.871094 65.306641 L 29.970703 64.457031 C 30.044023 63.838031 30.002863 63.548878 29.814453 63.392578 C 29.719821 63.314028 29.627663 63.277494 29.539062 63.28125 z M 27.160156 63.580078 C 26.986586 63.605008 26.823766 63.687816 26.699219 63.837891 C 26.473159 64.110291 26.703191 64.776987 27.119141 65.054688 C 27.614821 65.385687 28.300781 65.097594 28.300781 64.558594 C 28.300781 63.940144 27.680867 63.505289 27.160156 63.580078 z M 56.074219 63.759766 C 55.481941 63.759766 55.164062 64.057181 55.164062 64.613281 C 55.164063 64.955581 55.095972 65.015828 54.806641 64.923828 C 54.441023 64.807828 54.433631 64.821616 54.369141 65.728516 C 54.351631 65.974816 54.321204 66.389038 54.302734 66.648438 C 54.281103 66.952137 54.1428 67.152891 53.912109 67.212891 C 53.474264 67.327391 53.419476 68.143 53.833984 68.375 C 54.061565 68.5023 54.068138 68.565997 53.876953 68.716797 C 53.711869 68.846597 53.463451 68.826691 53.042969 68.650391 L 52.445312 68.400391 L 52.910156 67.935547 C 53.42338 67.422347 53.522751 66.718694 53.105469 66.558594 C 52.957719 66.501894 52.835938 66.266103 52.835938 66.033203 C 52.835937 65.480803 52.683958 65.344534 52.294922 65.552734 C 52.048724 65.684434 51.914039 65.623144 51.6875 65.277344 C 51.370079 64.792944 50.563698 64.670728 50.185547 65.048828 C 49.830315 65.404128 49.930962 66.217838 50.367188 66.523438 C 50.66154 66.729538 50.711252 66.851253 50.560547 67.001953 C 50.258035 67.304453 50.488473 67.699219 50.96875 67.699219 C 51.207724 67.699219 51.475497 67.853841 51.583984 68.056641 C 51.689414 68.253641 51.891031 68.416016 52.033203 68.416016 C 52.241687 68.416016 52.253069 68.499909 52.09375 68.849609 C 51.976431 69.106709 51.796098 69.2445 51.648438 69.1875 C 51.511693 69.1351 51.28473 69.186334 51.144531 69.302734 C 50.959311 69.456434 50.791274 69.461366 50.53125 69.322266 C 50.003154 69.039666 49.792969 69.088634 49.792969 69.490234 C 49.792969 69.745034 49.67301 69.847656 49.378906 69.847656 C 48.716423 69.847656 48.320512 70.243691 48.388672 70.837891 C 48.464089 71.495391 49.108332 71.863841 49.751953 71.619141 C 50.099151 71.487141 50.245144 71.520578 50.425781 71.767578 C 50.634624 72.053578 50.685551 72.055288 50.984375 71.804688 C 51.646276 71.249587 52.2257 71.104616 52.537109 71.416016 C 52.915003 71.793916 53.732422 71.458781 53.732422 70.925781 C 53.732422 70.726681 53.793318 70.565406 53.867188 70.566406 C 54.226855 70.573806 54.395059 70.885837 54.318359 71.398438 C 54.238357 71.933038 54.205643 71.954741 53.689453 71.806641 C 53.316759 71.699766 53.161518 71.701045 52.841797 72 L 55.302734 72 C 55.314945 71.972585 55.327799 71.953556 55.339844 71.921875 C 55.52179 71.443275 55.420965 70.921875 55.146484 70.921875 C 54.885929 70.921875 54.964576 70.432672 55.242188 70.326172 C 55.382735 70.272272 55.593175 70.342475 55.710938 70.484375 C 55.828701 70.626275 56.036187 70.744141 56.171875 70.744141 C 56.52119 70.744141 56.47793 70.970725 56.060547 71.328125 C 55.878674 71.483849 55.76284 71.747746 55.722656 72 L 58.337891 72 C 58.326455 71.890969 58.278322 71.818359 58.146484 71.818359 C 57.659097 71.818359 56.788729 70.827391 56.900391 70.400391 C 56.990473 70.055691 57.094165 70.029375 58.052734 70.109375 C 59.011769 70.189275 59.105469 70.16615 59.105469 69.84375 C 59.105469 69.58585 59.226181 69.490234 59.552734 69.490234 C 60.047772 69.490234 60.716797 68.922806 60.716797 68.503906 C 60.716797 68.145506 60.028347 67.471313 59.763672 67.570312 C 58.940067 67.879612 58.739294 67.888394 58.636719 67.621094 C 58.507425 67.284294 58.103458 67.253153 57.904297 67.564453 C 57.699451 67.884653 56.524319 68.283894 56.449219 68.058594 C 56.336413 67.720194 55.585765 67.877125 55.162109 68.328125 C 54.669807 68.852125 54.434517 68.718594 54.576172 67.996094 C 54.660836 67.564494 54.745655 67.500219 55.132812 67.574219 C 55.714028 67.685419 56.417969 67.368094 56.417969 66.996094 C 56.417969 66.838594 56.580343 66.609428 56.777344 66.486328 C 57.149006 66.254228 57.270592 65.728516 56.953125 65.728516 C 56.842065 65.728516 56.816609 65.452172 56.886719 65.013672 C 57.023222 64.160072 56.763644 63.759766 56.074219 63.759766 z M 39.605469 63.9375 C 39.158912 63.9375 38.94036 64.242213 38.791016 65.070312 C 38.688458 65.639013 38.529441 65.836775 37.853516 66.234375 C 36.668143 66.931675 35.924545 67.607409 36.074219 67.849609 C 36.291286 68.200809 36.921708 68.084263 38.09375 67.476562 L 39.214844 66.894531 L 40.003906 67.324219 C 41.392886 68.083019 41.887205 67.418713 40.658203 66.445312 C 39.980459 65.908613 39.941406 65.825903 39.941406 64.908203 C 39.941406 64.078803 39.893023 63.9375 39.605469 63.9375 z M 9.4589844 64.160156 C 8.7551558 64.187829 7.7050781 64.768513 7.7050781 65.203125 C 7.7050781 65.549025 7.7759644 65.567837 8.6464844 65.460938 C 9.1641644 65.397038 9.7866929 65.425391 10.033203 65.525391 C 10.684373 65.788691 10.926428 65.767894 11.054688 65.433594 C 11.190427 65.079894 10.427765 64.357694 9.734375 64.183594 C 9.6519663 64.162919 9.5595313 64.156203 9.4589844 64.160156 z M 41.316406 64.503906 C 41.064226 64.526659 40.916537 64.643009 40.740234 64.912109 C 40.575587 65.163309 40.485979 65.490072 40.542969 65.638672 C 40.690581 66.023172 41.617754 65.976053 41.990234 65.564453 C 42.457072 65.048653 42.286716 64.575766 41.609375 64.509766 C 41.497563 64.498916 41.400466 64.496322 41.316406 64.503906 z M 9.2460938 65.623047 C 9.0077588 65.651459 8.7641613 65.808103 8.5039062 66.095703 C 8.0929662 66.549703 8.3002856 66.761891 9.2285156 66.837891 C 10.498336 66.941891 10.731905 66.647975 9.9589844 65.921875 C 9.7166494 65.694225 9.4844287 65.594634 9.2460938 65.623047 z M 28.720703 67.101562 C 28.653717 67.110992 28.599306 67.137459 28.550781 67.177734 C 28.223841 67.449134 28.235906 67.688191 28.597656 68.087891 C 28.873446 68.392691 28.873446 68.437388 28.597656 68.742188 C 28.284336 69.088387 28.213444 69.522087 28.433594 69.742188 C 28.582484 69.891087 28.927117 69.823469 30.091797 69.417969 C 30.535047 69.263669 31.119755 69.094016 31.390625 69.041016 C 31.666965 68.987416 31.882812 68.826781 31.882812 68.675781 C 31.882812 68.527781 31.661505 68.323403 31.390625 68.220703 C 31.119755 68.118003 30.426669 67.794353 29.849609 67.501953 C 29.236762 67.191603 28.921661 67.073273 28.720703 67.101562 z M 34.164062 67.529297 C 33.834753 67.533734 33.500783 67.676984 33.21875 67.958984 C 32.62055 68.557184 32.63314 69.350737 33.25 69.835938 C 33.872697 70.325738 34.411056 70.304378 34.990234 69.767578 C 35.573648 69.226878 35.60854 68.502247 35.076172 67.935547 C 34.818069 67.660797 34.493372 67.524859 34.164062 67.529297 z M 26.962891 67.535156 C 26.010711 67.554156 24.674844 67.914781 24.589844 68.175781 C 24.552574 68.290281 24.947353 68.546947 25.470703 68.748047 C 27.033423 69.348547 28.480469 69.191122 28.480469 68.419922 C 28.480469 67.921122 27.789881 67.519156 26.962891 67.535156 z M 9.3613281 67.714844 C 9.1652281 67.690644 8.9748262 67.755612 8.8164062 67.914062 C 8.5401562 68.190263 8.5401563 68.819403 8.8164062 69.095703 C 9.1640763 69.443403 9.6468137 69.344775 9.9648438 68.859375 C 10.242394 68.435775 10.239103 68.383834 9.9394531 68.052734 C 9.7581531 67.852384 9.5574281 67.739044 9.3613281 67.714844 z M 39.601562 67.757812 C 39.40394 67.769142 39.05814 67.868253 38.714844 68.017578 C 38.257116 68.216578 37.560923 68.44725 37.167969 68.53125 C 36.123191 68.75445 36.103495 69.2418 37.128906 69.5 C 37.565042 69.6098 38.271777 69.929891 38.699219 70.212891 C 39.30039 70.610891 39.53293 70.682791 39.722656 70.525391 C 39.857557 70.413391 39.927816 70.167569 39.878906 69.980469 C 39.809556 69.715169 39.85563 69.669938 40.089844 69.773438 C 40.918501 70.139437 43.519664 69.931362 43.800781 69.476562 C 43.941302 69.249163 42.364537 68.575137 41.423828 68.460938 C 40.575173 68.357937 39.763672 68.749919 39.763672 69.261719 C 39.763672 69.492319 39.714244 69.513062 39.552734 69.351562 C 39.391229 69.190063 39.412421 69.062894 39.642578 68.808594 C 39.986728 68.428294 40.032674 67.955644 39.744141 67.777344 C 39.716979 67.760544 39.667437 67.754036 39.601562 67.757812 z M 56.318359 68.894531 C 56.541212 68.900123 56.616667 69.000966 56.685547 69.275391 C 56.818671 69.805791 56.817379 69.806687 56.152344 69.679688 C 55.415651 69.538887 55.340124 69.020869 56.041016 68.917969 C 56.153214 68.901519 56.244075 68.892667 56.318359 68.894531 z M 31.9375 69.546875 C 31.757428 69.518122 31.453014 69.606803 30.943359 69.830078 C 28.982379 70.689178 29.092155 70.673541 28.328125 70.244141 C 27.496035 69.776541 27.075931 69.743566 26.925781 70.134766 C 26.852471 70.325866 27.062684 70.646309 27.558594 71.099609 C 27.984433 71.488909 28.162286 71.711725 28.240234 72 L 29.486328 72 C 29.635963 71.664739 29.977599 71.455842 30.736328 71.09375 C 31.928788 70.52465 32.432445 69.969534 32.078125 69.615234 C 32.04281 69.579909 31.997524 69.556459 31.9375 69.546875 z M 52.777344 69.669922 C 53.241453 69.669922 53.375 69.743159 53.375 70.005859 C 53.375 70.191359 53.232922 70.394078 53.060547 70.455078 C 52.888171 70.515878 52.65624 70.609109 52.544922 70.662109 C 52.424489 70.719909 52.309319 70.539144 52.261719 70.214844 C 52.186259 69.700744 52.215326 69.669922 52.777344 69.669922 z M 36.316406 69.849609 C 35.726135 69.846409 35.991922 70.512612 36.853516 71.195312 C 37.277509 71.531297 37.551866 71.777402 37.771484 72 L 40.234375 72 C 40.261693 71.983924 40.275172 71.970018 40.304688 71.953125 C 41.134468 71.478125 41.331629 71.106081 40.914062 70.800781 C 40.668695 70.621381 40.484214 70.646741 39.925781 70.931641 C 39.548408 71.124141 39.159017 71.28125 39.060547 71.28125 C 38.962083 71.28125 38.375444 70.959406 37.755859 70.566406 C 37.136276 70.173306 36.488781 69.850509 36.316406 69.849609 z M 32.785156 70.576172 C 32.584175 70.597372 32.332851 70.724613 32.134766 70.945312 C 31.947116 71.154312 31.370646 71.564622 30.853516 71.857422 C 30.767222 71.906297 30.719175 71.95214 30.644531 72 L 32.792969 72 C 32.822835 71.910908 32.852258 71.796965 32.880859 71.728516 C 33.021999 71.390716 33.136719 70.990744 33.136719 70.839844 C 33.136719 70.640044 32.986138 70.554972 32.785156 70.576172 z M 35.072266 70.675781 C 34.955336 70.748081 34.937508 71.063344 35.023438 71.527344 C 35.044786 71.642661 35.062812 71.834111 35.082031 72 L 36.753906 72 C 36.548403 71.80755 36.419029 71.702983 36.214844 71.501953 C 35.688411 70.983653 35.174529 70.612781 35.072266 70.675781 z M 33.876953 70.957031 C 33.662152 70.993912 33.542449 71.292683 33.451172 72 L 34.335938 72 C 34.271483 71.335646 34.1903 70.995077 34.009766 70.960938 C 33.961573 70.951763 33.917872 70.950005 33.876953 70.957031 z M 27.150391 71.638672 C 26.875531 71.638672 26.592342 71.793746 26.373047 72 L 27.697266 72 C 27.635694 71.779611 27.457114 71.638672 27.150391 71.638672 z "
       transform="translate(0,980.36216)"
       id="path4149" />
  </g>
</svg>
